<?xml version="1.0" encoding="UTF-8" standalone="no"?>
<!-- Generator: Adobe Illustrator 25.2.3, SVG Export Plug-In . SVG Version: 6.00 Build 0)  -->

<svg
   version="1.1"
   x="0px"
   y="0px"
   viewBox="0 0 918 594"
   xml:space="preserve"
   id="svg215"
   sodipodi:docname="35mm.svg"
   inkscape:version="1.1 (c68e22c387, 2021-05-23)"
   width="1224"
   height="792"
   xmlns:inkscape="http://www.inkscape.org/namespaces/inkscape"
   xmlns:sodipodi="http://sodipodi.sourceforge.net/DTD/sodipodi-0.dtd"
   xmlns="http://www.w3.org/2000/svg"
   xmlns:svg="http://www.w3.org/2000/svg"><defs
   id="defs219">
	
	
</defs><sodipodi:namedview
   id="namedview217"
   pagecolor="#ffffff"
   bordercolor="#666666"
   borderopacity="1.0"
   inkscape:pageshadow="2"
   inkscape:pageopacity="0.0"
   inkscape:pagecheckerboard="0"
   showgrid="false"
   inkscape:zoom="1.4264706"
   inkscape:cx="352.96907"
   inkscape:cy="259.03093"
   inkscape:window-width="2560"
   inkscape:window-height="1377"
   inkscape:window-x="-8"
   inkscape:window-y="-8"
   inkscape:window-maximized="1"
   inkscape:current-layer="layer1"
   inkscape:document-units="in" />
<style
   type="text/css"
   id="style2">
	.st0{display:none;}
	.st1{display:inline;}
	.st2{fill:none;stroke:#000000;stroke-width:0.5;stroke-linecap:round;stroke-linejoin:round;}
	.st3{display:inline;fill:none;stroke:#000000;stroke-width:0.5;stroke-linecap:round;stroke-linejoin:round;}
	.st4{fill:none;stroke:#000000;stroke-width:0.25;stroke-linejoin:round;stroke-dasharray:3,1.5;}
	.st5{display:inline;fill:none;stroke:#000000;stroke-width:0.25;stroke-linejoin:round;stroke-dasharray:3,1.5;}
	.st6{fill:none;stroke:#C80000;stroke-linecap:round;stroke-linejoin:round;}
	.st7{font-family:'TimesNewRomanPS-BoldMT';}
	.st8{font-size:15.9px;}
	.st9{font-size:19.1px;}
	.st10{font-size:12.8px;}
	.st11{fill:none;}
	.st12{font-size:13px;}
	.st13{fill:none;stroke:#231F20;stroke-linecap:square;stroke-miterlimit:10;}
</style>
<g
   id="Default"
   class="st0">
	<g
   class="st1"
   id="g12">
		<path
   class="st2"
   d="m 465.2,545.9 c 145.5,-34.5 153.8,-36 167.2,-36 20.4,0 31.4,7.1 39.9,25.6"
   id="path4" />
		<path
   class="st2"
   d="m 672.3,572.2 c -8.5,18.5 -19.5,25.5 -39.9,25.5 -13.4,0 -21.8,-1.5 -167.2,-36"
   id="path6" />
		<path
   class="st2"
   d="m 167.3,572.2 c 8.5,18.5 19.5,25.5 39.9,25.5 13.4,0 21.4,-1.5 166.9,-36"
   id="path8" />
		<path
   class="st2"
   d="m 374.1,545.9 c -145.5,-34.5 -153.5,-36 -166.9,-36 -20.4,0 -31.4,7.1 -39.9,25.6"
   id="path10" />
	</g>
	<path
   class="st3"
   d="m 376.4,568.3 c -127.8,59.4 -149.2,63.4 -169.2,63.4 -36,0 -67.3,-24.7 -75.8,-59.6"
   id="path14" />
	<path
   class="st3"
   d="M 376.4,539.3 C 248.6,479.9 227.2,475.9 207.2,475.9 c -36,0 -67.3,24.7 -75.8,59.6"
   id="path16" />
	<path
   class="st3"
   d="m 462.8,568.3 c 127.8,59.4 149.5,63.4 169.6,63.4 36,0 67.3,-24.7 75.8,-59.6"
   id="path18" />
	<path
   class="st3"
   d="m 462.8,539.3 c 127.8,-59.4 149.5,-63.4 169.6,-63.4 36,0 67.3,24.7 75.8,59.6"
   id="path20" />
	<line
   class="st3"
   x1="632.40002"
   y1="631.79999"
   x2="207.2"
   y2="631.79999"
   id="line22" />
	<line
   class="st3"
   x1="207.2"
   y1="475.79999"
   x2="632.40002"
   y2="475.79999"
   id="line24" />
	<g
   class="st1"
   id="g34">
		<path
   class="st4"
   d="M 374.8,543.5 C 236.1,499.6 223.1,497.2 207.2,497.2 c -29.4,0 -44.1,10.5 -53.7,38.4"
   id="path26" />
		<path
   class="st4"
   d="m 464.5,543.5 c 138.7,-43.9 152.1,-46.3 167.9,-46.3 29.4,0 44.1,10.5 53.7,38.4"
   id="path28" />
		<path
   class="st4"
   d="m 153.6,572.2 c 9.5,27.8 24.2,38.3 53.6,38.3 15.8,0 28.9,-2.5 167.6,-46.3"
   id="path30" />
		<path
   class="st4"
   d="m 686,572.2 c -9.5,27.8 -24.2,38.3 -53.6,38.3 -15.8,0 -29.3,-2.5 -167.9,-46.3"
   id="path32" />
	</g>
	<g
   class="st1"
   id="g44">
		<path
   class="st4"
   d="m 207.2,585 c 11.1,0 14.3,-0.8 166.4,-25.7"
   id="path36" />
		<path
   class="st4"
   d="M 373.6,548.3 C 221.5,523.4 218.3,522.6 207.2,522.6"
   id="path38" />
		<path
   class="st4"
   d="M 465.6,548.3 C 617.7,523.4 621.2,522.6 632.4,522.6"
   id="path40" />
		<path
   class="st4"
   d="m 632.4,585 c -11.1,0 -14.6,-0.8 -166.8,-25.7"
   id="path42" />
	</g>
	<ellipse
   class="st5"
   cx="419.79999"
   cy="553.79999"
   rx="45.400002"
   ry="78"
   id="ellipse46" />
	<ellipse
   class="st5"
   cx="419.79999"
   cy="553.29999"
   rx="45.400002"
   ry="53.900002"
   id="ellipse48" />
</g>

<g
   id="Layer_02"
   class="st0">
	<g
   class="st1"
   id="g58">
		<text
   transform="rotate(-90,409.41555,148.79735)"
   class="st7 st8"
   id="text56">P</text>
	</g>
	<g
   class="st1"
   id="g62">
		<text
   transform="rotate(-90,459.32055,98.89235)"
   class="st7 st8"
   id="text60">S</text>
	</g>
	<g
   class="st1"
   id="g66">
		<text
   transform="rotate(-90,522.84985,34.85765)"
   class="st7 st8"
   id="text64">S</text>
	</g>
	<g
   class="st1"
   id="g70">
		<text
   transform="rotate(-90,573.92285,-15.70995)"
   class="st7 st8"
   id="text68">P</text>
	</g>
	<g
   class="st1"
   id="g84">
		<g
   id="g74">
			<text
   transform="translate(400.7275,616.252)"
   class="st7 st9"
   id="text72">O</text>
		</g>
		<g
   id="g78">
			<text
   transform="translate(369.0869,612)"
   class="st7 st10"
   id="text76">THE</text>
		</g>
		<g
   id="g82">
			<text
   transform="translate(415.4541,612)"
   class="st7 st10"
   id="text80">RBITALS</text>
		</g>
	</g>
	<g
   class="st1"
   id="g98">
		<g
   id="g88">
			<text
   transform="rotate(180,211.91115,247.31785)"
   class="st7 st10"
   id="text86">RBITALS</text>
		</g>
		<g
   id="g92">
			<text
   transform="rotate(180,235.09475,247.31785)"
   class="st7 st10"
   id="text90">THE</text>
		</g>
		<g
   id="g96">
			<text
   transform="rotate(180,219.2744,247.31785)"
   class="st7 st9"
   id="text94">O</text>
		</g>
	</g>
</g>
<g
   id="Layer_4"
   class="st0">
	<g
   class="st1"
   id="g105">
		<g
   id="g103">
			<path
   d="m 255.9,553.9 h 2.9 c 0.6,0 0.9,0 1.1,-0.1 0.2,-0.1 0.3,-0.2 0.4,-0.4 0.1,-0.2 0.1,-0.5 0.1,-1 h 0.3 v 5.3 h -0.3 c 0,-0.5 0,-0.8 -0.1,-1 -0.1,-0.2 -0.2,-0.3 -0.4,-0.4 -0.2,-0.1 -0.5,-0.1 -1.1,-0.1 H 252 c -0.6,0 -0.9,0 -1.1,0.1 -0.2,0.1 -0.3,0.2 -0.4,0.4 -0.1,0.2 -0.1,0.5 -0.1,1 h -0.3 v -4.6 c 0,-1.5 0.3,-2.6 0.8,-3.3 0.5,-0.7 1.2,-1 2,-1 0.7,0 1.3,0.2 1.8,0.6 0.5,0.4 0.8,1 1,1.8 0.1,0.7 0.2,1.5 0.2,2.7 z m -5.2,0 h 4.5 c 0,-0.2 0,-0.3 0,-0.4 0,-0.6 -0.2,-1.1 -0.6,-1.5 -0.4,-0.3 -1,-0.5 -1.7,-0.5 -0.8,0 -1.4,0.2 -1.7,0.5 -0.4,0.3 -0.5,0.9 -0.5,1.5 z"
   id="path101" />
		</g>
	</g>
	<g
   class="st1"
   id="g111">
		<g
   id="g109">
			<path
   d="m 349.7,550.7 3.5,-0.1 v 0.3 c -0.9,0.2 -1.6,0.5 -2.1,1.1 -0.5,0.6 -0.8,1.2 -0.8,1.9 0,0.5 0.1,0.9 0.4,1.3 0.3,0.3 0.6,0.5 1,0.5 0.2,0 0.4,-0.1 0.6,-0.2 0.2,-0.1 0.5,-0.4 0.7,-0.7 0.2,-0.2 0.5,-0.8 0.9,-1.7 0.6,-1.2 1.2,-2.1 1.7,-2.5 0.5,-0.4 1.2,-0.6 1.8,-0.6 0.9,0 1.6,0.3 2.3,1 0.6,0.7 1,1.6 1,2.6 0,0.3 0,0.6 -0.1,0.9 -0.1,0.3 -0.2,0.7 -0.4,1.1 -0.1,0.2 -0.2,0.5 -0.2,0.6 0,0.1 0.1,0.3 0.2,0.4 0.1,0.2 0.3,0.3 0.5,0.4 v 0.3 h -4 V 557 c 1.1,-0.2 2,-0.7 2.6,-1.3 0.6,-0.6 0.9,-1.3 0.9,-2.1 0,-0.6 -0.2,-1 -0.5,-1.4 -0.3,-0.4 -0.7,-0.5 -1.1,-0.5 -0.2,0 -0.5,0.1 -0.7,0.2 -0.2,0.1 -0.5,0.3 -0.7,0.6 -0.2,0.3 -0.5,0.7 -0.8,1.4 -0.5,1 -0.9,1.6 -1.2,2.1 -0.3,0.4 -0.7,0.7 -1.1,1 -0.4,0.2 -0.9,0.3 -1.4,0.3 -0.8,0 -1.6,-0.3 -2.1,-0.9 -0.6,-0.6 -0.9,-1.4 -0.9,-2.3 0,-0.3 0,-0.7 0.1,-1 0.1,-0.2 0.2,-0.5 0.3,-0.9 0.2,-0.3 0.3,-0.6 0.3,-0.7 0,-0.1 0,-0.2 -0.1,-0.3 -0.1,-0.1 -0.3,-0.1 -0.6,-0.2 z"
   id="path107" />
		</g>
	</g>
	<g
   class="st1"
   id="g117">
		<g
   id="g115">
			<path
   d="m 477.2,550.2 3.5,-0.1 v 0.3 c -0.9,0.2 -1.6,0.5 -2.1,1.1 -0.5,0.6 -0.8,1.2 -0.8,1.9 0,0.5 0.1,0.9 0.4,1.3 0.3,0.3 0.6,0.5 1,0.5 0.2,0 0.4,-0.1 0.6,-0.2 0.2,-0.1 0.5,-0.4 0.7,-0.7 0.2,-0.2 0.5,-0.8 0.9,-1.7 0.6,-1.2 1.2,-2.1 1.7,-2.5 0.5,-0.4 1.2,-0.6 1.8,-0.6 0.9,0 1.6,0.3 2.3,1 0.6,0.7 1,1.6 1,2.6 0,0.3 0,0.6 -0.1,0.9 -0.1,0.3 -0.2,0.7 -0.4,1.1 -0.1,0.2 -0.2,0.5 -0.2,0.6 0,0.1 0.1,0.3 0.2,0.4 0.1,0.2 0.3,0.3 0.5,0.4 v 0.3 h -4 v -0.3 c 1.1,-0.2 2,-0.7 2.6,-1.3 0.6,-0.6 0.9,-1.3 0.9,-2.1 0,-0.6 -0.2,-1 -0.5,-1.4 -0.3,-0.4 -0.7,-0.5 -1.1,-0.5 -0.2,0 -0.5,0.1 -0.7,0.2 -0.2,0.1 -0.5,0.3 -0.7,0.6 -0.2,0.3 -0.5,0.7 -0.8,1.4 -0.5,1 -0.9,1.6 -1.2,2.1 -0.3,0.4 -0.7,0.7 -1.1,1 -0.4,0.2 -0.9,0.3 -1.4,0.3 -0.8,0 -1.6,-0.3 -2.1,-0.9 -0.6,-0.6 -0.9,-1.4 -0.9,-2.3 0,-0.3 0,-0.7 0.1,-1 0.1,-0.2 0.2,-0.5 0.3,-0.9 0.2,-0.3 0.3,-0.6 0.3,-0.7 0,-0.1 0,-0.2 -0.1,-0.3 -0.1,-0.1 -0.3,-0.1 -0.6,-0.2 z"
   id="path113" />
		</g>
	</g>
	<g
   class="st1"
   id="g123">
		<g
   id="g121">
			<path
   d="m 584.9,553.9 h 2.9 c 0.6,0 0.9,0 1.1,-0.1 0.2,-0.1 0.3,-0.2 0.4,-0.4 0.1,-0.2 0.1,-0.5 0.1,-1 h 0.3 v 5.3 h -0.3 c 0,-0.5 0,-0.8 -0.1,-1 -0.1,-0.2 -0.2,-0.3 -0.4,-0.4 -0.2,-0.1 -0.5,-0.1 -1.1,-0.1 H 581 c -0.6,0 -0.9,0 -1.1,0.1 -0.2,0.1 -0.3,0.2 -0.4,0.4 -0.1,0.2 -0.1,0.5 -0.1,1 h -0.3 v -4.6 c 0,-1.5 0.3,-2.6 0.8,-3.3 0.5,-0.7 1.2,-1 2,-1 0.7,0 1.3,0.2 1.8,0.6 0.5,0.4 0.8,1 1,1.8 0.1,0.7 0.2,1.5 0.2,2.7 z m -5.2,0 h 4.5 c 0,-0.2 0,-0.3 0,-0.4 0,-0.6 -0.2,-1.1 -0.6,-1.5 -0.4,-0.3 -1,-0.5 -1.7,-0.5 -0.8,0 -1.4,0.2 -1.7,0.5 -0.4,0.3 -0.5,0.9 -0.5,1.5 z"
   id="path119" />
		</g>
	</g>
	<g
   class="st1"
   id="g159">
		<g
   id="g129">
			<g
   id="g127">
				<path
   d="m 408.1,610.2 c 2,-0.1 3.7,0.5 4.9,1.8 1.3,1.2 1.9,2.8 1.9,4.7 0,1.6 -0.5,3 -1.4,4.2 -1.2,1.6 -3,2.4 -5.3,2.4 -2.3,0 -4,-0.8 -5.3,-2.3 -1,-1.2 -1.5,-2.7 -1.5,-4.3 0,-1.9 0.6,-3.4 1.9,-4.7 1.3,-1.3 2.9,-1.9 4.8,-1.8 z m 0.1,0.6 c -1.2,0 -2,0.6 -2.6,1.8 -0.5,1 -0.7,2.4 -0.7,4.2 0,2.2 0.4,3.8 1.1,4.8 0.5,0.7 1.3,1.1 2.2,1.1 0.6,0 1.2,-0.2 1.6,-0.5 0.5,-0.4 1,-1 1.3,-1.9 0.3,-0.9 0.5,-2 0.5,-3.4 0,-1.7 -0.2,-2.9 -0.5,-3.8 -0.3,-0.8 -0.7,-1.4 -1.2,-1.8 -0.5,-0.3 -1.1,-0.5 -1.7,-0.5 z"
   id="path125" />
			</g>
		</g>
		<g
   id="g139">
			<g
   id="g137">
				<path
   d="m 377.2,614.5 v 2.3 H 377 c -0.1,-0.5 -0.3,-0.9 -0.4,-1.1 -0.2,-0.2 -0.4,-0.4 -0.7,-0.6 -0.2,-0.1 -0.4,-0.1 -0.8,-0.1 h -0.6 v 6.5 c 0,0.4 0,0.7 0.1,0.8 0,0.1 0.1,0.2 0.3,0.3 0.1,0.1 0.3,0.1 0.6,0.1 h 0.3 v 0.2 h -4.4 v -0.2 h 0.3 c 0.2,0 0.4,0 0.6,-0.1 0.1,-0.1 0.2,-0.2 0.3,-0.3 0,-0.1 0.1,-0.4 0.1,-0.8 V 615 h -0.6 c -0.6,0 -1,0.1 -1.2,0.4 -0.4,0.3 -0.6,0.8 -0.7,1.4 H 370 v -2.3 z"
   id="path131" />
				<path
   d="m 381.1,618.9 v 2.6 c 0,0.4 0,0.7 0.1,0.8 0,0.1 0.1,0.2 0.3,0.3 0.1,0.1 0.3,0.1 0.6,0.1 h 0.3 v 0.2 H 378 v -0.2 h 0.3 c 0.2,0 0.4,0 0.6,-0.1 0.1,-0.1 0.2,-0.2 0.2,-0.3 0,-0.1 0.1,-0.4 0.1,-0.8 v -5.6 c 0,-0.4 0,-0.7 -0.1,-0.8 -0.1,-0.1 -0.1,-0.2 -0.3,-0.3 -0.1,-0.1 -0.3,-0.1 -0.6,-0.1 h -0.3 v -0.2 h 4.4 v 0.2 H 382 c -0.2,0 -0.4,0 -0.6,0.1 -0.1,0.1 -0.2,0.2 -0.3,0.3 0,0.1 -0.1,0.4 -0.1,0.8 v 2.4 h 3 v -2.4 c 0,-0.4 0,-0.7 -0.1,-0.8 -0.1,-0.1 -0.1,-0.2 -0.3,-0.3 -0.1,-0.1 -0.3,-0.1 -0.6,-0.1 h -0.3 v -0.2 h 4.4 v 0.2 h -0.3 c -0.2,0 -0.4,0 -0.6,0.1 -0.1,0.1 -0.2,0.2 -0.3,0.3 0,0.1 -0.1,0.4 -0.1,0.8 v 5.6 c 0,0.4 0,0.7 0.1,0.8 0,0.1 0.1,0.2 0.3,0.3 0.1,0.1 0.3,0.1 0.6,0.1 h 0.3 v 0.2 h -4.4 v -0.2 h 0.3 c 0.2,0 0.4,0 0.6,-0.1 0.1,-0.1 0.2,-0.2 0.3,-0.3 0,-0.1 0.1,-0.4 0.1,-0.8 v -2.6 z"
   id="path133" />
				<path
   d="m 391.1,615 v 3.4 h 0.2 c 0.5,0 0.9,-0.2 1.2,-0.5 0.2,-0.3 0.4,-0.8 0.5,-1.5 h 0.2 v 4.4 H 393 c 0,-0.5 -0.2,-0.9 -0.3,-1.2 -0.2,-0.3 -0.3,-0.5 -0.6,-0.6 -0.2,-0.1 -0.5,-0.2 -0.9,-0.2 v 2.4 c 0,0.5 0,0.8 0.1,0.9 0,0.1 0.1,0.2 0.2,0.3 0.1,0.1 0.3,0.1 0.5,0.1 h 0.5 c 0.8,0 1.4,-0.2 1.9,-0.5 0.5,-0.3 0.8,-0.9 1,-1.7 h 0.2 l -0.4,2.7 h -7.3 v -0.2 h 0.3 c 0.2,0 0.4,0 0.6,-0.1 0.1,-0.1 0.2,-0.2 0.2,-0.3 0,-0.1 0.1,-0.4 0.1,-0.8 V 616 c 0,-0.4 0,-0.6 0,-0.7 0,-0.1 -0.1,-0.3 -0.2,-0.3 -0.2,-0.1 -0.4,-0.2 -0.6,-0.2 H 388 v -0.2 h 7.1 v 2.5 h -0.2 c -0.1,-0.6 -0.3,-1.1 -0.5,-1.3 -0.2,-0.2 -0.5,-0.5 -0.9,-0.6 -0.2,-0.1 -0.7,-0.1 -1.3,-0.1 h -1.1 z"
   id="path135" />
			</g>
		</g>
		<g
   id="g157">
			<g
   id="g155">
				<path
   d="m 418.9,619.1 v 2.4 c 0,0.5 0,0.7 0.1,0.9 0.1,0.1 0.2,0.2 0.3,0.3 0.1,0.1 0.4,0.1 0.8,0.1 v 0.2 h -4.3 v -0.2 c 0.4,0 0.7,0 0.8,-0.1 0.1,-0.1 0.2,-0.2 0.3,-0.3 0.1,-0.1 0.1,-0.4 0.1,-0.9 V 616 c 0,-0.5 0,-0.7 -0.1,-0.9 -0.1,-0.2 -0.2,-0.2 -0.3,-0.3 -0.1,-0.1 -0.4,-0.1 -0.8,-0.1 v -0.2 h 3.9 c 1,0 1.8,0.1 2.2,0.2 0.5,0.1 0.9,0.4 1.2,0.8 0.3,0.4 0.5,0.8 0.5,1.3 0,0.6 -0.2,1.1 -0.7,1.6 -0.3,0.3 -0.7,0.5 -1.2,0.6 l 2,2.9 c 0.3,0.4 0.5,0.6 0.6,0.7 0.2,0.1 0.4,0.2 0.6,0.2 v 0.2 h -2.7 l -2.7,-3.9 z m 0,-4.2 v 3.7 h 0.4 c 0.6,0 1,-0.1 1.3,-0.2 0.3,-0.1 0.5,-0.3 0.7,-0.6 0.2,-0.3 0.2,-0.6 0.2,-1.1 0,-0.6 -0.2,-1.1 -0.5,-1.4 -0.3,-0.3 -0.8,-0.5 -1.5,-0.5 h -0.6 z"
   id="path141" />
				<path
   d="m 430.4,618.5 c 0.8,0.2 1.4,0.4 1.7,0.7 0.5,0.4 0.7,0.9 0.7,1.5 0,0.6 -0.3,1.2 -0.8,1.6 -0.6,0.5 -1.5,0.8 -2.7,0.8 H 425 v -0.2 c 0.4,0 0.7,0 0.8,-0.1 0.1,-0.1 0.2,-0.2 0.3,-0.3 0.1,-0.1 0.1,-0.4 0.1,-0.9 V 616 c 0,-0.5 0,-0.7 -0.1,-0.9 -0.1,-0.2 -0.2,-0.2 -0.3,-0.3 -0.1,-0.1 -0.4,-0.1 -0.8,-0.1 v -0.2 h 4.1 c 1,0 1.7,0.1 2.1,0.3 0.4,0.2 0.7,0.4 1,0.8 0.3,0.4 0.4,0.7 0.4,1.1 0,0.4 -0.1,0.8 -0.4,1.1 -0.5,0.2 -1.1,0.5 -1.8,0.7 z m -2.3,0.3 v 2.7 0.3 c 0,0.2 0.1,0.4 0.2,0.5 0.1,0.1 0.3,0.2 0.5,0.2 0.3,0 0.6,-0.1 0.9,-0.2 0.3,-0.1 0.5,-0.4 0.6,-0.6 0.1,-0.2 0.2,-0.6 0.2,-0.9 0,-0.4 -0.1,-0.8 -0.3,-1.1 -0.2,-0.3 -0.4,-0.5 -0.8,-0.7 -0.4,-0.2 -0.6,-0.2 -1.3,-0.2 z m 0,-0.5 c 0.6,0 1,-0.1 1.3,-0.2 0.3,-0.1 0.5,-0.3 0.6,-0.6 0.1,-0.3 0.2,-0.6 0.2,-0.9 0,-0.3 -0.1,-0.7 -0.2,-0.9 -0.1,-0.2 -0.4,-0.4 -0.6,-0.5 -0.3,-0.1 -0.7,-0.2 -1.3,-0.2 z"
   id="path143" />
				<path
   d="m 437.9,622.7 v 0.2 h -4.4 v -0.2 h 0.3 c 0.2,0 0.4,0 0.6,-0.1 0.1,-0.1 0.2,-0.2 0.2,-0.3 0,-0.1 0.1,-0.4 0.1,-0.8 v -5.6 c 0,-0.4 0,-0.7 -0.1,-0.8 -0.1,-0.1 -0.1,-0.2 -0.3,-0.3 -0.1,-0.1 -0.3,-0.1 -0.6,-0.1 h -0.3 v -0.2 h 4.4 v 0.2 h -0.3 c -0.2,0 -0.4,0 -0.6,0.1 -0.1,0.1 -0.2,0.2 -0.3,0.3 0,0.1 -0.1,0.4 -0.1,0.8 v 5.6 c 0,0.4 0,0.7 0.1,0.8 0,0.1 0.1,0.2 0.3,0.3 0.1,0.1 0.3,0.1 0.6,0.1 z"
   id="path145" />
				<path
   d="m 446.3,614.5 v 2.3 h -0.2 c -0.1,-0.5 -0.3,-0.9 -0.4,-1.1 -0.2,-0.2 -0.4,-0.4 -0.7,-0.6 -0.2,-0.1 -0.4,-0.1 -0.8,-0.1 h -0.6 v 6.5 c 0,0.4 0,0.7 0.1,0.8 0,0.1 0.1,0.2 0.3,0.3 0.1,0.1 0.3,0.1 0.6,0.1 h 0.3 v 0.2 h -4.4 v -0.2 h 0.3 c 0.2,0 0.4,0 0.6,-0.1 0.1,-0.1 0.2,-0.2 0.3,-0.3 0,-0.1 0.1,-0.4 0.1,-0.8 V 615 h -0.6 c -0.6,0 -1,0.1 -1.2,0.4 -0.4,0.3 -0.6,0.8 -0.7,1.4 h -0.2 v -2.3 z"
   id="path147" />
				<path
   d="m 451.1,620.5 h -3 l -0.4,0.8 c -0.1,0.3 -0.2,0.5 -0.2,0.7 0,0.2 0.1,0.4 0.3,0.5 0.1,0.1 0.4,0.1 0.8,0.1 v 0.2 h -2.8 v -0.2 c 0.3,0 0.6,-0.2 0.8,-0.4 0.2,-0.2 0.4,-0.6 0.7,-1.3 l 3,-6.8 h 0.1 l 3.1,6.9 c 0.3,0.7 0.5,1.1 0.7,1.2 0.1,0.1 0.3,0.2 0.6,0.2 v 0.2 h -4.1 v -0.2 h 0.2 c 0.3,0 0.6,0 0.7,-0.1 0.1,-0.1 0.1,-0.2 0.1,-0.3 0,-0.1 0,-0.2 0,-0.2 0,0 -0.1,-0.2 -0.2,-0.5 z m -0.2,-0.4 -1.3,-2.9 -1.3,2.9 z"
   id="path149" />
				<path
   d="m 463.1,620 -0.3,3 h -7.5 v -0.2 h 0.3 c 0.2,0 0.4,0 0.6,-0.1 0.1,-0.1 0.2,-0.2 0.2,-0.3 0,-0.1 0.1,-0.4 0.1,-0.8 V 616 c 0,-0.4 0,-0.7 -0.1,-0.8 -0.1,-0.1 -0.1,-0.2 -0.3,-0.3 -0.1,-0.1 -0.3,-0.1 -0.6,-0.1 h -0.3 v -0.2 h 4.5 v 0.2 h -0.4 c -0.2,0 -0.4,0 -0.6,0.1 -0.1,0.1 -0.2,0.2 -0.3,0.3 0,0.1 -0.1,0.4 -0.1,0.8 v 5.4 c 0,0.4 0,0.7 0.1,0.8 0,0.1 0.1,0.2 0.3,0.3 0.1,0 0.4,0.1 0.8,0.1 h 0.7 c 0.5,0 0.8,-0.1 1.1,-0.2 0.3,-0.2 0.6,-0.4 0.8,-0.8 0.2,-0.4 0.4,-0.8 0.6,-1.5 h 0.4 z"
   id="path151" />
				<path
   d="m 469.6,614.3 0.1,2.8 h -0.3 c -0.1,-0.7 -0.4,-1.3 -0.9,-1.7 -0.5,-0.4 -1,-0.6 -1.5,-0.6 -0.4,0 -0.8,0.1 -1,0.3 -0.2,0.2 -0.4,0.5 -0.4,0.8 0,0.2 0,0.4 0.1,0.5 0.1,0.2 0.3,0.4 0.6,0.6 0.2,0.1 0.6,0.4 1.4,0.7 1,0.5 1.7,0.9 2,1.4 0.3,0.4 0.5,0.9 0.5,1.5 0,0.7 -0.3,1.3 -0.8,1.8 -0.6,0.5 -1.3,0.8 -2.1,0.8 -0.3,0 -0.5,0 -0.8,-0.1 -0.2,-0.1 -0.5,-0.2 -0.9,-0.3 -0.2,-0.1 -0.4,-0.1 -0.5,-0.1 -0.1,0 -0.2,0 -0.3,0.1 -0.1,0.1 -0.2,0.2 -0.3,0.4 h -0.2 V 620 h 0.2 c 0.2,0.9 0.5,1.6 1.1,2.1 0.5,0.5 1.1,0.7 1.7,0.7 0.5,0 0.8,-0.1 1.1,-0.4 0.3,-0.3 0.4,-0.6 0.4,-0.9 0,-0.2 -0.1,-0.4 -0.2,-0.6 -0.1,-0.2 -0.3,-0.4 -0.5,-0.5 -0.2,-0.2 -0.6,-0.4 -1.1,-0.7 -0.8,-0.4 -1.3,-0.7 -1.7,-1 -0.4,-0.3 -0.6,-0.6 -0.8,-0.9 -0.2,-0.3 -0.3,-0.7 -0.3,-1.1 0,-0.7 0.2,-1.2 0.7,-1.7 0.5,-0.5 1.1,-0.7 1.9,-0.7 0.3,0 0.5,0 0.8,0.1 0.2,0.1 0.4,0.1 0.7,0.3 0.3,0.2 0.5,0.2 0.6,0.2 0.1,0 0.2,0 0.3,-0.1 0.1,-0.1 0.1,-0.2 0.2,-0.5 z"
   id="path153" />
			</g>
		</g>
	</g>
	<g
   class="st1"
   id="g195">
		<g
   id="g177">
			<g
   id="g175">
				<path
   d="m 420.4,487.8 v -2.4 c 0,-0.5 0,-0.7 -0.1,-0.9 -0.1,-0.1 -0.2,-0.2 -0.3,-0.3 -0.1,-0.1 -0.4,-0.1 -0.8,-0.1 V 484 h 4.3 v 0.2 c -0.4,0 -0.7,0 -0.8,0.1 -0.1,0.1 -0.2,0.2 -0.3,0.3 -0.1,0.1 -0.1,0.4 -0.1,0.9 v 5.5 c 0,0.5 0,0.7 0.1,0.9 0.1,0.2 0.2,0.2 0.3,0.3 0.1,0.1 0.4,0.1 0.8,0.1 v 0.2 h -3.9 c -1,0 -1.8,-0.1 -2.2,-0.2 -0.5,-0.1 -0.9,-0.4 -1.2,-0.8 -0.3,-0.4 -0.5,-0.8 -0.5,-1.3 0,-0.6 0.2,-1.1 0.7,-1.6 0.3,-0.3 0.7,-0.5 1.2,-0.6 l -2,-2.9 c -0.3,-0.4 -0.5,-0.6 -0.6,-0.7 -0.2,-0.1 -0.4,-0.2 -0.6,-0.2 V 484 h 2.7 l 2.7,3.9 h 0.6 z m 0,4.2 v -3.7 H 420 c -0.6,0 -1,0.1 -1.3,0.2 -0.3,0.1 -0.5,0.3 -0.7,0.6 -0.2,0.3 -0.2,0.6 -0.2,1.1 0,0.6 0.2,1.1 0.5,1.4 0.3,0.3 0.8,0.5 1.5,0.5 h 0.6 z"
   id="path161" />
				<path
   d="m 408.9,488.5 c -0.8,-0.2 -1.4,-0.4 -1.7,-0.7 -0.5,-0.4 -0.7,-0.9 -0.7,-1.5 0,-0.6 0.3,-1.2 0.8,-1.6 0.6,-0.5 1.5,-0.8 2.7,-0.8 h 4.3 v 0.2 c -0.4,0 -0.7,0 -0.8,0.1 -0.1,0.1 -0.2,0.2 -0.3,0.3 -0.1,0.1 -0.1,0.4 -0.1,0.9 v 5.5 c 0,0.5 0,0.7 0.1,0.9 0.1,0.2 0.2,0.2 0.3,0.3 0.1,0.1 0.4,0.1 0.8,0.1 v 0.2 h -4.1 c -1,0 -1.7,-0.1 -2.1,-0.3 -0.4,-0.2 -0.7,-0.4 -1,-0.8 -0.3,-0.4 -0.4,-0.7 -0.4,-1.1 0,-0.4 0.1,-0.8 0.4,-1.1 0.5,-0.2 1,-0.4 1.8,-0.6 z m 2.3,-0.3 v -2.7 -0.3 c 0,-0.2 -0.1,-0.4 -0.2,-0.5 -0.1,-0.1 -0.3,-0.2 -0.5,-0.2 -0.3,0 -0.6,0.1 -0.9,0.2 -0.3,0.1 -0.5,0.4 -0.6,0.6 -0.1,0.2 -0.2,0.6 -0.2,0.9 0,0.4 0.1,0.8 0.3,1.1 0.2,0.3 0.4,0.5 0.8,0.7 0.4,0.2 0.6,0.2 1.3,0.2 z m 0,0.4 c -0.6,0 -1,0.1 -1.3,0.2 -0.3,0.1 -0.5,0.3 -0.6,0.6 -0.1,0.3 -0.2,0.6 -0.2,0.9 0,0.3 0.1,0.7 0.2,0.9 0.1,0.2 0.4,0.4 0.6,0.5 0.3,0.1 0.7,0.2 1.3,0.2 z"
   id="path163" />
				<path
   d="M 401.4,484.2 V 484 h 4.4 v 0.2 h -0.3 c -0.2,0 -0.4,0 -0.6,0.1 -0.1,0.1 -0.2,0.2 -0.2,0.3 0,0.1 -0.1,0.4 -0.1,0.8 v 5.6 c 0,0.4 0,0.7 0.1,0.8 0.1,0.1 0.1,0.2 0.3,0.3 0.1,0.1 0.3,0.1 0.6,0.1 h 0.3 v 0.2 h -4.4 v -0.2 h 0.3 c 0.2,0 0.4,0 0.6,-0.1 0.1,-0.1 0.2,-0.2 0.3,-0.3 0,-0.1 0.1,-0.4 0.1,-0.8 v -5.6 c 0,-0.4 0,-0.7 -0.1,-0.8 0,-0.1 -0.1,-0.2 -0.3,-0.3 -0.1,-0.1 -0.3,-0.1 -0.6,-0.1 z"
   id="path165" />
				<path
   d="m 393,492.5 v -2.3 h 0.2 c 0.1,0.5 0.3,0.9 0.4,1.1 0.2,0.2 0.4,0.4 0.7,0.6 0.2,0.1 0.4,0.1 0.8,0.1 h 0.6 v -6.5 c 0,-0.4 0,-0.7 -0.1,-0.8 0,-0.1 -0.1,-0.2 -0.3,-0.3 -0.1,-0.1 -0.3,-0.1 -0.6,-0.1 h -0.3 V 484 h 4.4 v 0.2 h -0.3 c -0.2,0 -0.4,0 -0.6,0.1 -0.1,0.1 -0.2,0.2 -0.3,0.3 0,0.1 -0.1,0.4 -0.1,0.8 v 6.5 h 0.6 c 0.6,0 1,-0.1 1.2,-0.4 0.4,-0.3 0.6,-0.8 0.7,-1.4 h 0.2 v 2.3 H 393 Z"
   id="path167" />
				<path
   d="m 388.1,486.4 h 3 l 0.4,-0.8 c 0.1,-0.3 0.2,-0.5 0.2,-0.7 0,-0.2 -0.1,-0.4 -0.3,-0.5 -0.1,-0.1 -0.4,-0.1 -0.8,-0.1 V 484 h 2.8 v 0.2 c -0.3,0 -0.6,0.2 -0.8,0.4 -0.2,0.2 -0.4,0.6 -0.7,1.3 l -3,6.8 h -0.1 l -3.1,-6.9 c -0.3,-0.7 -0.5,-1.1 -0.7,-1.2 -0.1,-0.1 -0.3,-0.2 -0.6,-0.2 V 484 h 4.1 v 0.2 h -0.2 c -0.3,0 -0.6,0 -0.7,0.1 -0.1,0.1 -0.1,0.2 -0.1,0.3 0,0.1 0,0.2 0,0.2 0,0 0.1,0.2 0.2,0.5 z m 0.3,0.5 1.3,2.9 1.3,-2.9 z"
   id="path169" />
				<path
   d="m 376.1,487 0.3,-3 h 7.5 v 0.2 h -0.3 c -0.2,0 -0.4,0 -0.6,0.1 -0.1,0.1 -0.2,0.2 -0.2,0.3 0,0.1 -0.1,0.4 -0.1,0.8 v 5.6 c 0,0.4 0,0.7 0.1,0.8 0.1,0.1 0.1,0.2 0.3,0.3 0.1,0.1 0.3,0.1 0.6,0.1 h 0.3 v 0.2 h -4.5 v -0.2 h 0.4 c 0.2,0 0.4,0 0.6,-0.1 0.1,-0.1 0.2,-0.2 0.3,-0.3 0,-0.1 0.1,-0.4 0.1,-0.8 v -5.4 c 0,-0.4 0,-0.7 -0.1,-0.8 0,-0.1 -0.1,-0.2 -0.3,-0.3 -0.1,0 -0.4,-0.1 -0.8,-0.1 H 379 c -0.5,0 -0.8,0.1 -1.1,0.2 -0.3,0.2 -0.6,0.4 -0.8,0.8 -0.2,0.4 -0.4,0.8 -0.6,1.5 h -0.4 z"
   id="path171" />
				<path
   d="m 369.7,492.7 -0.1,-2.8 h 0.3 c 0.1,0.7 0.4,1.3 0.9,1.7 0.5,0.4 1,0.6 1.5,0.6 0.4,0 0.8,-0.1 1,-0.3 0.2,-0.2 0.4,-0.5 0.4,-0.8 0,-0.2 0,-0.4 -0.1,-0.5 -0.1,-0.2 -0.3,-0.4 -0.6,-0.6 -0.2,-0.1 -0.6,-0.4 -1.4,-0.7 -1,-0.5 -1.7,-0.9 -2,-1.4 -0.3,-0.4 -0.5,-0.9 -0.5,-1.5 0,-0.7 0.3,-1.3 0.8,-1.8 0.6,-0.5 1.3,-0.8 2.1,-0.8 0.3,0 0.5,0 0.8,0.1 0.2,0.1 0.5,0.2 0.9,0.3 0.2,0.1 0.4,0.1 0.5,0.1 0.1,0 0.2,0 0.3,-0.1 0.1,-0.1 0.2,-0.2 0.3,-0.4 h 0.2 v 3.2 h -0.2 c -0.2,-0.9 -0.5,-1.6 -1.1,-2.1 -0.5,-0.5 -1.1,-0.7 -1.7,-0.7 -0.5,0 -0.8,0.1 -1.1,0.4 -0.3,0.3 -0.4,0.6 -0.4,0.9 0,0.2 0.1,0.4 0.2,0.6 0.1,0.2 0.3,0.4 0.5,0.5 0.2,0.2 0.6,0.4 1.1,0.7 0.8,0.4 1.3,0.7 1.7,1 0.4,0.3 0.6,0.6 0.8,0.9 0.2,0.3 0.3,0.7 0.3,1.1 0,0.7 -0.2,1.2 -0.7,1.7 -0.5,0.5 -1.1,0.7 -1.9,0.7 -0.3,0 -0.5,0 -0.8,-0.1 -0.2,-0.1 -0.4,-0.1 -0.7,-0.3 -0.3,-0.2 -0.5,-0.2 -0.6,-0.2 -0.1,0 -0.2,0 -0.3,0.1 -0.1,0.1 -0.1,0.2 -0.2,0.5 z"
   id="path173" />
			</g>
		</g>
		<g
   id="g187">
			<g
   id="g185">
				<path
   d="m 462.1,492.5 v -2.3 h 0.2 c 0.1,0.5 0.3,0.9 0.4,1.1 0.2,0.2 0.4,0.4 0.7,0.6 0.2,0.1 0.4,0.1 0.8,0.1 h 0.6 v -6.5 c 0,-0.4 0,-0.7 -0.1,-0.8 0,-0.1 -0.1,-0.2 -0.3,-0.3 -0.1,-0.1 -0.3,-0.1 -0.6,-0.1 h -0.3 V 484 h 4.4 v 0.2 h -0.3 c -0.2,0 -0.4,0 -0.6,0.1 -0.1,0.1 -0.2,0.2 -0.3,0.3 0,0.1 -0.1,0.4 -0.1,0.8 v 6.5 h 0.6 c 0.6,0 1,-0.1 1.2,-0.4 0.4,-0.3 0.6,-0.8 0.7,-1.4 h 0.2 v 2.3 h -7.2 z"
   id="path179" />
				<path
   d="m 458.2,488.1 v -2.6 c 0,-0.4 0,-0.7 -0.1,-0.8 0,-0.1 -0.1,-0.2 -0.3,-0.3 -0.1,-0.1 -0.3,-0.1 -0.6,-0.1 H 457 V 484 h 4.4 v 0.2 h -0.3 c -0.2,0 -0.4,0 -0.6,0.1 -0.1,0.1 -0.2,0.2 -0.2,0.3 0,0.1 -0.1,0.4 -0.1,0.8 v 5.6 c 0,0.4 0,0.7 0.1,0.8 0.1,0.1 0.1,0.2 0.3,0.3 0.1,0.1 0.3,0.1 0.6,0.1 h 0.3 v 0.2 H 457 v -0.2 h 0.3 c 0.2,0 0.4,0 0.6,-0.1 0.1,-0.1 0.2,-0.2 0.3,-0.3 0,-0.1 0.1,-0.4 0.1,-0.8 v -2.4 h -3 v 2.4 c 0,0.4 0,0.7 0.1,0.8 0.1,0.1 0.1,0.2 0.3,0.3 0.1,0.1 0.3,0.1 0.6,0.1 h 0.3 v 0.2 h -4.4 v -0.2 h 0.3 c 0.2,0 0.4,0 0.6,-0.1 0.1,-0.1 0.2,-0.2 0.3,-0.3 0,-0.1 0.1,-0.4 0.1,-0.8 v -5.6 c 0,-0.4 0,-0.7 -0.1,-0.8 0,-0.1 -0.1,-0.2 -0.3,-0.3 -0.1,-0.1 -0.3,-0.1 -0.6,-0.1 h -0.3 V 484 h 4.4 v 0.2 h -0.3 c -0.2,0 -0.4,0 -0.6,0.1 -0.1,0.1 -0.2,0.2 -0.3,0.3 0,0.1 -0.1,0.4 -0.1,0.8 v 2.6 h 2.9 z"
   id="path181" />
				<path
   d="m 448.2,492 v -3.4 H 448 c -0.5,0 -0.9,0.2 -1.2,0.5 -0.2,0.3 -0.4,0.8 -0.5,1.5 h -0.2 v -4.4 h 0.2 c 0,0.5 0.2,0.9 0.3,1.2 0.2,0.3 0.3,0.5 0.6,0.6 0.2,0.1 0.5,0.2 0.9,0.2 v -2.4 c 0,-0.5 0,-0.8 -0.1,-0.9 0,-0.1 -0.1,-0.2 -0.2,-0.3 -0.1,-0.1 -0.3,-0.1 -0.5,-0.1 h -0.5 c -0.8,0 -1.4,0.2 -1.9,0.5 -0.5,0.3 -0.8,0.9 -1,1.7 h -0.2 l 0.4,-2.7 h 7.3 v 0.2 h -0.3 c -0.2,0 -0.4,0 -0.6,0.1 -0.1,0.1 -0.2,0.2 -0.2,0.3 0,0.1 -0.1,0.4 -0.1,0.8 v 5.6 c 0,0.4 0,0.6 0,0.7 0,0.1 0.1,0.3 0.2,0.3 0.2,0.1 0.4,0.2 0.6,0.2 h 0.3 v 0.2 h -7.1 V 490 h 0.2 c 0.1,0.6 0.3,1.1 0.5,1.3 0.2,0.2 0.5,0.5 0.9,0.6 0.2,0.1 0.7,0.1 1.3,0.1 z"
   id="path183" />
			</g>
		</g>
		<g
   id="g193">
			<g
   id="g191">
				<path
   d="m 431.2,496.8 c -2,0.1 -3.7,-0.5 -4.9,-1.8 -1.3,-1.2 -1.9,-2.8 -1.9,-4.7 0,-1.6 0.5,-3 1.4,-4.2 1.2,-1.6 3,-2.4 5.3,-2.4 2.3,0 4,0.8 5.3,2.3 1,1.2 1.5,2.7 1.5,4.3 0,1.9 -0.6,3.4 -1.9,4.7 -1.3,1.3 -3,1.9 -4.8,1.8 z m -0.1,-0.6 c 1.2,0 2,-0.6 2.6,-1.8 0.5,-1 0.7,-2.4 0.7,-4.2 0,-2.2 -0.4,-3.8 -1.1,-4.8 -0.5,-0.7 -1.3,-1.1 -2.2,-1.1 -0.6,0 -1.2,0.2 -1.6,0.5 -0.5,0.4 -1,1 -1.3,1.9 -0.3,0.9 -0.5,2 -0.5,3.4 0,1.7 0.2,2.9 0.5,3.8 0.3,0.8 0.7,1.4 1.2,1.8 0.5,0.3 1,0.5 1.7,0.5 z"
   id="path189" />
			</g>
		</g>
	</g>
</g>

<g
   inkscape:groupmode="layer"
   id="layer1"
   inkscape:label="Layer 1"><path
     class="st6"
     d="m 95.83009,198.4 c -44.1,0 -82.8,-29.3 -94.7,-71.7 -1.7,-5.9 0.6,-9.1 6.8,-9.1 19.8,0 39.6,0 59.4,0 2.3,0 3.8,0.7 5.3,2.4 19.1,21.4 54.5,7.8 54.4,-20.8 0,-28.7 -35.5,-42.1 -54.5,-20.7 -1.5,1.7 -3,2.4 -5.3,2.4 -20.1,0 -40.3,0 -60.4,0 -5.9,-0.4 -7.9,-3.4 -6.3,-9 12.2,-42.6 51.1,-71.9 95.4,-71.9 70.9,0 141.7,0 212.6,0 70.9,0 141.7,0 212.6,0 44.3,0 83.2,29.3 95.4,71.9 1.6,5.7 -0.4,8.6 -6.3,9 -20.1,0 -40.3,0 -60.4,0 -2.3,0 -3.8,-0.7 -5.3,-2.4 -19,-21.4 -54.4,-8 -54.5,20.7 -0.1,28.7 35.3,42.2 54.4,20.8 1.5,-1.7 3,-2.4 5.3,-2.4 19.8,0 39.6,0 59.4,0 6.2,0 8.5,3.1 6.8,9.1 -11.9,42.4 -50.6,71.7 -94.7,71.7 -70.9,0 -141.7,0 -212.6,0 -70.9,0 -141.9,0 -212.8,0 z"
     id="path51"
     style="vector-effect:non-scaling-stroke;fill:none;fill-opacity:1;stroke:#00ff00;stroke-width:0.01;stroke-miterlimit:4;stroke-dasharray:none;stroke-opacity:1;-inkscape-stroke:hairline" /><circle
     class="st6"
     cx="308.53009"
     cy="99.199997"
     id="circle53"
     style="vector-effect:non-scaling-stroke;fill:none;fill-opacity:1;stroke:#ff0000;stroke-width:0.0109265;stroke-miterlimit:4;stroke-dasharray:none;stroke-opacity:1;-inkscape-stroke:hairline"
     r="49.6063" /></g><g
   inkscape:groupmode="layer"
   id="layer2"
   inkscape:label="Layer 2"
   style="display:inline" /></svg>
