<?xml version="1.0" encoding="UTF-8" standalone="no"?>
<!-- Generator: Adobe Illustrator 25.2.3, SVG Export Plug-In . SVG Version: 6.00 Build 0)  -->

<svg
   version="1.1"
   x="0px"
   y="0px"
   viewBox="0 0 792 1224"
   style="enable-background:new 0 0 792 1224;"
   xml:space="preserve"
   id="svg198"
   sodipodi:docname="TheOrbitals.svg"
   inkscape:version="1.1 (c68e22c387, 2021-05-23)"
   xmlns:inkscape="http://www.inkscape.org/namespaces/inkscape"
   xmlns:sodipodi="http://sodipodi.sourceforge.net/DTD/sodipodi-0.dtd"
   xmlns="http://www.w3.org/2000/svg"
   xmlns:svg="http://www.w3.org/2000/svg"><defs
   id="defs202" /><sodipodi:namedview
   id="namedview200"
   pagecolor="#ffffff"
   bordercolor="#666666"
   borderopacity="1.0"
   inkscape:pageshadow="2"
   inkscape:pageopacity="0.0"
   inkscape:pagecheckerboard="0"
   showgrid="false"
   inkscape:zoom="2.8529412"
   inkscape:cx="375.57731"
   inkscape:cy="563.4536"
   inkscape:window-width="2560"
   inkscape:window-height="1377"
   inkscape:window-x="-8"
   inkscape:window-y="-8"
   inkscape:window-maximized="1"
   inkscape:current-layer="svg198" />
<style
   type="text/css"
   id="style2">
	.st0{fill:none;stroke:#000000;stroke-width:0.5;stroke-linecap:round;stroke-linejoin:round;}
	.st1{fill:none;stroke:#000000;stroke-width:0.25;stroke-linejoin:round;stroke-dasharray:3,1.5;}
	.st2{fill:none;stroke:#C80000;stroke-linecap:round;stroke-linejoin:round;}
	.st3{display:none;}
	.st4{display:inline;}
	.st5{font-family:'TimesNewRomanPS-BoldMT';}
	.st6{font-size:15.9px;}
	.st7{font-size:19.1px;}
	.st8{font-size:12.8px;}
</style>
<g
   id="Default"
   style="stroke:#000000;stroke-opacity:1">
	<g
   id="g12"
   style="stroke:#000000;stroke-opacity:1">
		<path
   class="st0"
   d="M452.9,545.9c145.5-34.5,166.1-36,179.5-36c20.4,0,31.4,7.1,39.9,25.6"
   id="path4"
   style="stroke:#000000;stroke-opacity:1" />
		<path
   class="st0"
   d="M672.3,572.2c-8.5,18.5-19.5,25.5-39.9,25.5c-13.4,0-34.1-1.5-179.5-36"
   id="path6"
   style="stroke:#000000;stroke-opacity:1" />
		<path
   class="st0"
   d="M167.3,572.2c8.5,18.5,19.5,25.5,39.9,25.5c13.4,0,34.1-1.5,179.5-36"
   id="path8"
   style="stroke:#000000;stroke-opacity:1" />
		<path
   class="st0"
   d="M386.7,545.9c-145.5-34.5-166.1-36-179.5-36c-20.4,0-31.4,7.1-39.9,25.6"
   id="path10"
   style="stroke:#000000;stroke-opacity:1" />
	</g>
	<path
   class="st0"
   d="M389,568.3c-127.8,59.4-161.8,63.4-181.8,63.4c-36,0-67.3-24.7-75.8-59.6"
   id="path14"
   style="stroke:#000000;stroke-opacity:1" />
	<path
   class="st0"
   d="M389,539.3c-127.8-59.4-161.8-63.4-181.8-63.4c-36,0-67.3,24.7-75.8,59.6"
   id="path16"
   style="stroke:#000000;stroke-opacity:1" />
	<path
   class="st0"
   d="M450.6,568.3c127.8,59.4,161.8,63.4,181.8,63.4c36,0,67.3-24.7,75.8-59.6"
   id="path18"
   style="stroke:#000000;stroke-opacity:1" />
	<path
   class="st0"
   d="M450.6,539.3c127.8-59.4,161.8-63.4,181.8-63.4c36,0,67.3,24.7,75.8,59.6"
   id="path20"
   style="stroke:#000000;stroke-opacity:1" />
	<line
   class="st0"
   x1="632.4"
   y1="631.8"
   x2="207.2"
   y2="631.8"
   id="line22"
   style="stroke:#000000;stroke-opacity:1" />
	<line
   class="st0"
   x1="207.2"
   y1="475.8"
   x2="632.4"
   y2="475.8"
   id="line24"
   style="stroke:#000000;stroke-opacity:1" />
	<g
   id="g34"
   style="stroke:#000000;stroke-opacity:1">
		<path
   class="st1"
   d="M387.4,543.5c-138.7-43.9-164.4-46.3-180.2-46.3c-29.4,0-44.1,10.5-53.7,38.4"
   id="path26"
   style="stroke:#000000;stroke-opacity:1" />
		<path
   class="st1"
   d="M452.2,543.5c138.7-43.9,164.4-46.3,180.2-46.3c29.4,0,44.1,10.5,53.7,38.4"
   id="path28"
   style="stroke:#000000;stroke-opacity:1" />
		<path
   class="st1"
   d="M153.6,572.2c9.5,27.8,24.2,38.3,53.6,38.3c15.8,0,41.5-2.5,180.2-46.3"
   id="path30"
   style="stroke:#000000;stroke-opacity:1" />
		<path
   class="st1"
   d="M686,572.2c-9.5,27.8-24.2,38.3-53.6,38.3c-15.8,0-41.5-2.5-180.2-46.3"
   id="path32"
   style="stroke:#000000;stroke-opacity:1" />
	</g>
	<g
   id="g44"
   style="stroke:#000000;stroke-opacity:1">
		<path
   class="st1"
   d="M207.2,585c11.1,0,26.9-0.8,179-25.7"
   id="path36"
   style="stroke:#000000;stroke-opacity:1" />
		<path
   class="st1"
   d="M386.2,548.3c-152.1-24.9-167.9-25.7-179-25.7"
   id="path38"
   style="stroke:#000000;stroke-opacity:1" />
		<path
   class="st1"
   d="M453.4,548.3c152.1-24.9,167.9-25.7,179-25.7"
   id="path40"
   style="stroke:#000000;stroke-opacity:1" />
		<path
   class="st1"
   d="M632.4,585c-11.1,0-26.9-0.8-179-25.7"
   id="path42"
   style="stroke:#000000;stroke-opacity:1" />
	</g>
	<ellipse
   class="st1"
   cx="419.8"
   cy="553.8"
   rx="34"
   ry="78"
   id="ellipse46"
   style="stroke:#000000;stroke-opacity:1" />
	<ellipse
   class="st1"
   cx="419.8"
   cy="553.3"
   rx="34"
   ry="50.2"
   id="ellipse48"
   style="stroke:#000000;stroke-opacity:1" />
</g>
<g
   id="Layer_01">
	<path
   class="st2"
   d="M207.2,653c-44.1,0-82.8-29.3-94.7-71.7c-1.7-5.9,0.6-9.1,6.8-9.1c19.8,0,39.6,0,59.4,0c2.3,0,3.8,0.7,5.3,2.4   c19.1,21.4,54.5,7.8,54.4-20.8c0-28.7-35.5-42.1-54.5-20.7c-1.5,1.7-3,2.4-5.3,2.4c-20.1,0-40.3,0-60.4,0c-5.9-0.4-7.9-3.4-6.3-9   c12.2-42.6,51.1-71.9,95.4-71.9c70.9,0,141.7,0,212.6,0s141.7,0,212.6,0c44.3,0,83.2,29.3,95.4,71.9c1.6,5.7-0.4,8.6-6.3,9   c-20.1,0-40.3,0-60.4,0c-2.3,0-3.8-0.7-5.3-2.4c-19-21.4-54.4-8-54.5,20.7s35.3,42.2,54.4,20.8c1.5-1.7,3-2.4,5.3-2.4   c19.8,0,39.6,0,59.4,0c6.2,0,8.5,3.1,6.8,9.1c-11.9,42.4-50.6,71.7-94.7,71.7c-70.9,0-141.7,0-212.6,0S278.1,653,207.2,653z"
   id="path51"
   style="stroke:#ff0000;stroke-opacity:1;stroke-width:0.01;vector-effect:non-scaling-stroke;-inkscape-stroke:hairline;stroke-miterlimit:4;stroke-dasharray:none" />
	<circle
   class="st2"
   cx="419.8"
   cy="553.8"
   r="34"
   id="circle53" />
</g>
<g
   id="Layer_02"
   class="st3">
	<g
   class="st4"
   id="g58">
		<text
   transform="matrix(0 -1 1 0 260.6182 558.2129)"
   class="st5 st6"
   id="text56">P</text>
	</g>
	<g
   class="st4"
   id="g62">
		<text
   transform="matrix(0 -1 1 0 360.4282 558.2129)"
   class="st5 st6"
   id="text60">S</text>
	</g>
	<g
   class="st4"
   id="g66">
		<text
   transform="matrix(0 -1 1 0 487.9922 557.7075)"
   class="st5 st6"
   id="text64">S</text>
	</g>
	<g
   class="st4"
   id="g70">
		<text
   transform="matrix(0 -1 1 0 589.6333 558.2129)"
   class="st5 st6"
   id="text68">P</text>
	</g>
	<g
   class="st4"
   id="g84">
		<g
   id="g74">
			<text
   transform="matrix(1 0 0 1 400.7275 616.252)"
   class="st5 st7"
   id="text72">O</text>
		</g>
		<g
   id="g78">
			<text
   transform="matrix(1 0 0 1 369.0869 612)"
   class="st5 st8"
   id="text76">THE</text>
		</g>
		<g
   id="g82">
			<text
   transform="matrix(1 0 0 1 415.4541 612)"
   class="st5 st8"
   id="text80">RBITALS</text>
		</g>
	</g>
	<g
   class="st4"
   id="g98">
		<g
   id="g88">
			<text
   transform="matrix(-1 0 0 -1 423.8228 494.6357)"
   class="st5 st8"
   id="text86">RBITALS</text>
		</g>
		<g
   id="g92">
			<text
   transform="matrix(-1 0 0 -1 470.1899 494.6357)"
   class="st5 st8"
   id="text90">THE</text>
		</g>
		<g
   id="g96">
			<text
   transform="matrix(-1 0 0 -1 438.5493 494.6357)"
   class="st5 st7"
   id="text94">O</text>
		</g>
	</g>
</g>
<g
   id="Layer_4"
   style="fill:#000000;fill-opacity:1">
	<g
   id="g105"
   style="fill:#000000;fill-opacity:1">
		<g
   id="g103"
   style="fill:#000000;fill-opacity:1">
			<path
   d="M255.9,553.9h2.9c0.6,0,0.9,0,1.1-0.1s0.3-0.2,0.4-0.4c0.1-0.2,0.1-0.5,0.1-1h0.3v5.3h-0.3c0-0.5,0-0.8-0.1-1     c-0.1-0.2-0.2-0.3-0.4-0.4s-0.5-0.1-1.1-0.1h-6.8c-0.6,0-0.9,0-1.1,0.1s-0.3,0.2-0.4,0.4c-0.1,0.2-0.1,0.5-0.1,1h-0.3v-4.6     c0-1.5,0.3-2.6,0.8-3.3c0.5-0.7,1.2-1,2-1c0.7,0,1.3,0.2,1.8,0.6c0.5,0.4,0.8,1,1,1.8C255.8,551.9,255.9,552.7,255.9,553.9z      M250.7,553.9h4.5c0-0.2,0-0.3,0-0.4c0-0.6-0.2-1.1-0.6-1.5c-0.4-0.3-1-0.5-1.7-0.5c-0.8,0-1.4,0.2-1.7,0.5     c-0.4,0.3-0.5,0.9-0.5,1.5V553.9z"
   id="path101"
   style="fill:#000000;fill-opacity:1" />
		</g>
	</g>
	<g
   id="g111"
   style="fill:#000000;fill-opacity:1">
		<g
   id="g109"
   style="fill:#000000;fill-opacity:1">
			<path
   d="M349.7,550.7l3.5-0.1v0.3c-0.9,0.2-1.6,0.5-2.1,1.1s-0.8,1.2-0.8,1.9c0,0.5,0.1,0.9,0.4,1.3c0.3,0.3,0.6,0.5,1,0.5     c0.2,0,0.4-0.1,0.6-0.2c0.2-0.1,0.5-0.4,0.7-0.7c0.2-0.2,0.5-0.8,0.9-1.7c0.6-1.2,1.2-2.1,1.7-2.5c0.5-0.4,1.2-0.6,1.8-0.6     c0.9,0,1.6,0.3,2.3,1c0.6,0.7,1,1.6,1,2.6c0,0.3,0,0.6-0.1,0.9c-0.1,0.3-0.2,0.7-0.4,1.1c-0.1,0.2-0.2,0.5-0.2,0.6     c0,0.1,0.1,0.3,0.2,0.4c0.1,0.2,0.3,0.3,0.5,0.4v0.3h-4v-0.3c1.1-0.2,2-0.7,2.6-1.3c0.6-0.6,0.9-1.3,0.9-2.1c0-0.6-0.2-1-0.5-1.4     s-0.7-0.5-1.1-0.5c-0.2,0-0.5,0.1-0.7,0.2c-0.2,0.1-0.5,0.3-0.7,0.6c-0.2,0.3-0.5,0.7-0.8,1.4c-0.5,1-0.9,1.6-1.2,2.1     c-0.3,0.4-0.7,0.7-1.1,1c-0.4,0.2-0.9,0.3-1.4,0.3c-0.8,0-1.6-0.3-2.1-0.9c-0.6-0.6-0.9-1.4-0.9-2.3c0-0.3,0-0.7,0.1-1     c0.1-0.2,0.2-0.5,0.3-0.9c0.2-0.3,0.3-0.6,0.3-0.7c0-0.1,0-0.2-0.1-0.3c-0.1-0.1-0.3-0.1-0.6-0.2V550.7z"
   id="path107"
   style="fill:#000000;fill-opacity:1" />
		</g>
	</g>
	<g
   id="g117"
   style="fill:#000000;fill-opacity:1">
		<g
   id="g115"
   style="fill:#000000;fill-opacity:1">
			<path
   d="M477.2,550.2l3.5-0.1v0.3c-0.9,0.2-1.6,0.5-2.1,1.1s-0.8,1.2-0.8,1.9c0,0.5,0.1,0.9,0.4,1.3c0.3,0.3,0.6,0.5,1,0.5     c0.2,0,0.4-0.1,0.6-0.2c0.2-0.1,0.5-0.4,0.7-0.7c0.2-0.2,0.5-0.8,0.9-1.7c0.6-1.2,1.2-2.1,1.7-2.5c0.5-0.4,1.2-0.6,1.8-0.6     c0.9,0,1.6,0.3,2.3,1c0.6,0.7,1,1.6,1,2.6c0,0.3,0,0.6-0.1,0.9s-0.2,0.7-0.4,1.1c-0.1,0.2-0.2,0.5-0.2,0.6c0,0.1,0.1,0.3,0.2,0.4     c0.1,0.2,0.3,0.3,0.5,0.4v0.3h-4v-0.3c1.1-0.2,2-0.7,2.6-1.3c0.6-0.6,0.9-1.3,0.9-2.1c0-0.6-0.2-1-0.5-1.4s-0.7-0.5-1.1-0.5     c-0.2,0-0.5,0.1-0.7,0.2c-0.2,0.1-0.5,0.3-0.7,0.6c-0.2,0.3-0.5,0.7-0.8,1.4c-0.5,1-0.9,1.6-1.2,2.1c-0.3,0.4-0.7,0.7-1.1,1     c-0.4,0.2-0.9,0.3-1.4,0.3c-0.8,0-1.6-0.3-2.1-0.9c-0.6-0.6-0.9-1.4-0.9-2.3c0-0.3,0-0.7,0.1-1c0.1-0.2,0.2-0.5,0.3-0.9     c0.2-0.3,0.3-0.6,0.3-0.7c0-0.1,0-0.2-0.1-0.3c-0.1-0.1-0.3-0.1-0.6-0.2V550.2z"
   id="path113"
   style="fill:#000000;fill-opacity:1" />
		</g>
	</g>
	<g
   id="g123"
   style="fill:#000000;fill-opacity:1">
		<g
   id="g121"
   style="fill:#000000;fill-opacity:1">
			<path
   d="M584.9,553.9h2.9c0.6,0,0.9,0,1.1-0.1s0.3-0.2,0.4-0.4c0.1-0.2,0.1-0.5,0.1-1h0.3v5.3h-0.3c0-0.5,0-0.8-0.1-1     c-0.1-0.2-0.2-0.3-0.4-0.4s-0.5-0.1-1.1-0.1H581c-0.6,0-0.9,0-1.1,0.1s-0.3,0.2-0.4,0.4c-0.1,0.2-0.1,0.5-0.1,1h-0.3v-4.6     c0-1.5,0.3-2.6,0.8-3.3c0.5-0.7,1.2-1,2-1c0.7,0,1.3,0.2,1.8,0.6c0.5,0.4,0.8,1,1,1.8C584.8,551.9,584.9,552.7,584.9,553.9z      M579.7,553.9h4.5c0-0.2,0-0.3,0-0.4c0-0.6-0.2-1.1-0.6-1.5c-0.4-0.3-1-0.5-1.7-0.5c-0.8,0-1.4,0.2-1.7,0.5     c-0.4,0.3-0.5,0.9-0.5,1.5V553.9z"
   id="path119"
   style="fill:#000000;fill-opacity:1" />
		</g>
	</g>
	<g
   id="g159"
   style="fill:#000000;fill-opacity:1">
		<g
   id="g129"
   style="fill:#000000;fill-opacity:1">
			<g
   id="g127"
   style="fill:#000000;fill-opacity:1">
				<path
   d="M408.1,606.4c2-0.1,3.7,0.5,4.9,1.8c1.3,1.2,1.9,2.8,1.9,4.7c0,1.6-0.5,3-1.4,4.2c-1.2,1.6-3,2.4-5.3,2.4      c-2.3,0-4-0.8-5.3-2.3c-1-1.2-1.5-2.7-1.5-4.3c0-1.9,0.6-3.4,1.9-4.7S406.2,606.3,408.1,606.4z M408.2,607c-1.2,0-2,0.6-2.6,1.8      c-0.5,1-0.7,2.4-0.7,4.2c0,2.2,0.4,3.8,1.1,4.8c0.5,0.7,1.3,1.1,2.2,1.1c0.6,0,1.2-0.2,1.6-0.5c0.5-0.4,1-1,1.3-1.9      s0.5-2,0.5-3.4c0-1.7-0.2-2.9-0.5-3.8c-0.3-0.8-0.7-1.4-1.2-1.8C409.4,607.1,408.8,607,408.2,607z"
   id="path125"
   style="fill:#000000;fill-opacity:1" />
			</g>
		</g>
		<g
   id="g139"
   style="fill:#000000;fill-opacity:1">
			<g
   id="g137"
   style="fill:#000000;fill-opacity:1">
				<path
   d="M377.2,610.6v2.3h-0.2c-0.1-0.5-0.3-0.9-0.4-1.1c-0.2-0.2-0.4-0.4-0.7-0.6c-0.2-0.1-0.4-0.1-0.8-0.1h-0.6v6.5      c0,0.4,0,0.7,0.1,0.8c0,0.1,0.1,0.2,0.3,0.3c0.1,0.1,0.3,0.1,0.6,0.1h0.3v0.2h-4.4v-0.2h0.3c0.2,0,0.4,0,0.6-0.1      c0.1-0.1,0.2-0.2,0.3-0.3c0-0.1,0.1-0.4,0.1-0.8v-6.5h-0.6c-0.6,0-1,0.1-1.2,0.4c-0.4,0.3-0.6,0.8-0.7,1.4h-0.2v-2.3H377.2z"
   id="path131"
   style="fill:#000000;fill-opacity:1" />
				<path
   d="M381.1,615v2.6c0,0.4,0,0.7,0.1,0.8c0,0.1,0.1,0.2,0.3,0.3c0.1,0.1,0.3,0.1,0.6,0.1h0.3v0.2h-4.4v-0.2h0.3      c0.2,0,0.4,0,0.6-0.1c0.1-0.1,0.2-0.2,0.2-0.3c0-0.1,0.1-0.4,0.1-0.8v-5.6c0-0.4,0-0.7-0.1-0.8s-0.1-0.2-0.3-0.3      c-0.1-0.1-0.3-0.1-0.6-0.1h-0.3v-0.2h4.4v0.2H382c-0.2,0-0.4,0-0.6,0.1c-0.1,0.1-0.2,0.2-0.3,0.3c0,0.1-0.1,0.4-0.1,0.8v2.4h3      v-2.4c0-0.4,0-0.7-0.1-0.8s-0.1-0.2-0.3-0.3c-0.1-0.1-0.3-0.1-0.6-0.1h-0.3v-0.2h4.4v0.2h-0.3c-0.2,0-0.4,0-0.6,0.1      c-0.1,0.1-0.2,0.2-0.3,0.3c0,0.1-0.1,0.4-0.1,0.8v5.6c0,0.4,0,0.7,0.1,0.8c0,0.1,0.1,0.2,0.3,0.3c0.1,0.1,0.3,0.1,0.6,0.1h0.3      v0.2h-4.4v-0.2h0.3c0.2,0,0.4,0,0.6-0.1c0.1-0.1,0.2-0.2,0.3-0.3c0-0.1,0.1-0.4,0.1-0.8V615H381.1z"
   id="path133"
   style="fill:#000000;fill-opacity:1" />
				<path
   d="M391.1,611.1v3.4h0.2c0.5,0,0.9-0.2,1.2-0.5c0.2-0.3,0.4-0.8,0.5-1.5h0.2v4.4h-0.2c0-0.5-0.2-0.9-0.3-1.2      c-0.2-0.3-0.3-0.5-0.6-0.6c-0.2-0.1-0.5-0.2-0.9-0.2v2.4c0,0.5,0,0.8,0.1,0.9c0,0.1,0.1,0.2,0.2,0.3c0.1,0.1,0.3,0.1,0.5,0.1      h0.5c0.8,0,1.4-0.2,1.9-0.5s0.8-0.9,1-1.7h0.2l-0.4,2.7h-7.3v-0.2h0.3c0.2,0,0.4,0,0.6-0.1c0.1-0.1,0.2-0.2,0.2-0.3      c0-0.1,0.1-0.4,0.1-0.8v-5.6c0-0.4,0-0.6,0-0.7c0-0.1-0.1-0.3-0.2-0.3c-0.2-0.1-0.4-0.2-0.6-0.2h-0.3v-0.2h7.1v2.5h-0.2      c-0.1-0.6-0.3-1.1-0.5-1.3s-0.5-0.5-0.9-0.6c-0.2-0.1-0.7-0.1-1.3-0.1H391.1z"
   id="path135"
   style="fill:#000000;fill-opacity:1" />
			</g>
		</g>
		<g
   id="g157"
   style="fill:#000000;fill-opacity:1">
			<g
   id="g155"
   style="fill:#000000;fill-opacity:1">
				<path
   d="M418.9,615.2v2.4c0,0.5,0,0.7,0.1,0.9c0.1,0.1,0.2,0.2,0.3,0.3s0.4,0.1,0.8,0.1v0.2h-4.3v-0.2c0.4,0,0.7,0,0.8-0.1      c0.1-0.1,0.2-0.2,0.3-0.3s0.1-0.4,0.1-0.9v-5.5c0-0.5,0-0.7-0.1-0.9s-0.2-0.2-0.3-0.3c-0.1-0.1-0.4-0.1-0.8-0.1v-0.2h3.9      c1,0,1.8,0.1,2.2,0.2c0.5,0.1,0.9,0.4,1.2,0.8c0.3,0.4,0.5,0.8,0.5,1.3c0,0.6-0.2,1.1-0.7,1.6c-0.3,0.3-0.7,0.5-1.2,0.6l2,2.9      c0.3,0.4,0.5,0.6,0.6,0.7c0.2,0.1,0.4,0.2,0.6,0.2v0.2h-2.7l-2.7-3.9H418.9z M418.9,611.1v3.7h0.4c0.6,0,1-0.1,1.3-0.2      c0.3-0.1,0.5-0.3,0.7-0.6c0.2-0.3,0.2-0.6,0.2-1.1c0-0.6-0.2-1.1-0.5-1.4c-0.3-0.3-0.8-0.5-1.5-0.5H418.9z"
   id="path141"
   style="fill:#000000;fill-opacity:1" />
				<path
   d="M430.4,614.6c0.8,0.2,1.4,0.4,1.7,0.7c0.5,0.4,0.7,0.9,0.7,1.5c0,0.6-0.3,1.2-0.8,1.6c-0.6,0.5-1.5,0.8-2.7,0.8H425      v-0.2c0.4,0,0.7,0,0.8-0.1c0.1-0.1,0.2-0.2,0.3-0.3s0.1-0.4,0.1-0.9v-5.5c0-0.5,0-0.7-0.1-0.9s-0.2-0.2-0.3-0.3      c-0.1-0.1-0.4-0.1-0.8-0.1v-0.2h4.1c1,0,1.7,0.1,2.1,0.3c0.4,0.2,0.7,0.4,1,0.8s0.4,0.7,0.4,1.1c0,0.4-0.1,0.8-0.4,1.1      C431.7,614.2,431.1,614.4,430.4,614.6z M428.1,614.9v2.7l0,0.3c0,0.2,0.1,0.4,0.2,0.5s0.3,0.2,0.5,0.2c0.3,0,0.6-0.1,0.9-0.2      c0.3-0.1,0.5-0.4,0.6-0.6s0.2-0.6,0.2-0.9c0-0.4-0.1-0.8-0.3-1.1c-0.2-0.3-0.4-0.5-0.8-0.7S428.8,614.9,428.1,614.9z       M428.1,614.4c0.6,0,1-0.1,1.3-0.2s0.5-0.3,0.6-0.6s0.2-0.6,0.2-0.9s-0.1-0.7-0.2-0.9c-0.1-0.2-0.4-0.4-0.6-0.5      c-0.3-0.1-0.7-0.2-1.3-0.2V614.4z"
   id="path143"
   style="fill:#000000;fill-opacity:1" />
				<path
   d="M437.9,618.9v0.2h-4.4v-0.2h0.3c0.2,0,0.4,0,0.6-0.1c0.1-0.1,0.2-0.2,0.2-0.3c0-0.1,0.1-0.4,0.1-0.8v-5.6      c0-0.4,0-0.7-0.1-0.8s-0.1-0.2-0.3-0.3c-0.1-0.1-0.3-0.1-0.6-0.1h-0.3v-0.2h4.4v0.2h-0.3c-0.2,0-0.4,0-0.6,0.1      c-0.1,0.1-0.2,0.2-0.3,0.3c0,0.1-0.1,0.4-0.1,0.8v5.6c0,0.4,0,0.7,0.1,0.8c0,0.1,0.1,0.2,0.3,0.3c0.1,0.1,0.3,0.1,0.6,0.1H437.9      z"
   id="path145"
   style="fill:#000000;fill-opacity:1" />
				<path
   d="M446.3,610.6v2.3h-0.2c-0.1-0.5-0.3-0.9-0.4-1.1c-0.2-0.2-0.4-0.4-0.7-0.6c-0.2-0.1-0.4-0.1-0.8-0.1h-0.6v6.5      c0,0.4,0,0.7,0.1,0.8c0,0.1,0.1,0.2,0.3,0.3c0.1,0.1,0.3,0.1,0.6,0.1h0.3v0.2h-4.4v-0.2h0.3c0.2,0,0.4,0,0.6-0.1      c0.1-0.1,0.2-0.2,0.3-0.3c0-0.1,0.1-0.4,0.1-0.8v-6.5h-0.6c-0.6,0-1,0.1-1.2,0.4c-0.4,0.3-0.6,0.8-0.7,1.4h-0.2v-2.3H446.3z"
   id="path147"
   style="fill:#000000;fill-opacity:1" />
				<path
   d="M451.1,616.7h-3l-0.4,0.8c-0.1,0.3-0.2,0.5-0.2,0.7c0,0.2,0.1,0.4,0.3,0.5c0.1,0.1,0.4,0.1,0.8,0.1v0.2h-2.8v-0.2      c0.3,0,0.6-0.2,0.8-0.4c0.2-0.2,0.4-0.6,0.7-1.3l3-6.8h0.1l3.1,6.9c0.3,0.7,0.5,1.1,0.7,1.2c0.1,0.1,0.3,0.2,0.6,0.2v0.2h-4.1      v-0.2h0.2c0.3,0,0.6,0,0.7-0.1c0.1-0.1,0.1-0.2,0.1-0.3c0-0.1,0-0.2,0-0.2c0,0-0.1-0.2-0.2-0.5L451.1,616.7z M450.9,616.2      l-1.3-2.9l-1.3,2.9H450.9z"
   id="path149"
   style="fill:#000000;fill-opacity:1" />
				<path
   d="M463.1,616.1l-0.3,3h-7.5v-0.2h0.3c0.2,0,0.4,0,0.6-0.1c0.1-0.1,0.2-0.2,0.2-0.3c0-0.1,0.1-0.4,0.1-0.8v-5.6      c0-0.4,0-0.7-0.1-0.8s-0.1-0.2-0.3-0.3c-0.1-0.1-0.3-0.1-0.6-0.1h-0.3v-0.2h4.5v0.2h-0.4c-0.2,0-0.4,0-0.6,0.1      c-0.1,0.1-0.2,0.2-0.3,0.3c0,0.1-0.1,0.4-0.1,0.8v5.4c0,0.4,0,0.7,0.1,0.8c0,0.1,0.1,0.2,0.3,0.3c0.1,0,0.4,0.1,0.8,0.1h0.7      c0.5,0,0.8-0.1,1.1-0.2c0.3-0.2,0.6-0.4,0.8-0.8s0.4-0.8,0.6-1.5H463.1z"
   id="path151"
   style="fill:#000000;fill-opacity:1" />
				<path
   d="M469.6,610.4l0.1,2.8h-0.3c-0.1-0.7-0.4-1.3-0.9-1.7c-0.5-0.4-1-0.6-1.5-0.6c-0.4,0-0.8,0.1-1,0.3      c-0.2,0.2-0.4,0.5-0.4,0.8c0,0.2,0,0.4,0.1,0.5c0.1,0.2,0.3,0.4,0.6,0.6c0.2,0.1,0.6,0.4,1.4,0.7c1,0.5,1.7,0.9,2,1.4      c0.3,0.4,0.5,0.9,0.5,1.5c0,0.7-0.3,1.3-0.8,1.8c-0.6,0.5-1.3,0.8-2.1,0.8c-0.3,0-0.5,0-0.8-0.1c-0.2-0.1-0.5-0.2-0.9-0.3      c-0.2-0.1-0.4-0.1-0.5-0.1c-0.1,0-0.2,0-0.3,0.1c-0.1,0.1-0.2,0.2-0.3,0.4h-0.2v-3.2h0.2c0.2,0.9,0.5,1.6,1.1,2.1      c0.5,0.5,1.1,0.7,1.7,0.7c0.5,0,0.8-0.1,1.1-0.4c0.3-0.3,0.4-0.6,0.4-0.9c0-0.2-0.1-0.4-0.2-0.6c-0.1-0.2-0.3-0.4-0.5-0.5      c-0.2-0.2-0.6-0.4-1.1-0.7c-0.8-0.4-1.3-0.7-1.7-1s-0.6-0.6-0.8-0.9s-0.3-0.7-0.3-1.1c0-0.7,0.2-1.2,0.7-1.7      c0.5-0.5,1.1-0.7,1.9-0.7c0.3,0,0.5,0,0.8,0.1c0.2,0.1,0.4,0.1,0.7,0.3s0.5,0.2,0.6,0.2c0.1,0,0.2,0,0.3-0.1      c0.1-0.1,0.1-0.2,0.2-0.5H469.6z"
   id="path153"
   style="fill:#000000;fill-opacity:1" />
			</g>
		</g>
	</g>
	<g
   id="g195"
   style="fill:#000000;fill-opacity:1">
		<g
   id="g177"
   style="fill:#000000;fill-opacity:1">
			<g
   id="g175"
   style="fill:#000000;fill-opacity:1">
				<path
   d="M420.4,492.2v-2.4c0-0.5,0-0.7-0.1-0.9c-0.1-0.1-0.2-0.2-0.3-0.3s-0.4-0.1-0.8-0.1v-0.2h4.3v0.2c-0.4,0-0.7,0-0.8,0.1      c-0.1,0.1-0.2,0.2-0.3,0.3s-0.1,0.4-0.1,0.9v5.5c0,0.5,0,0.7,0.1,0.9s0.2,0.2,0.3,0.3c0.1,0.1,0.4,0.1,0.8,0.1v0.2h-3.9      c-1,0-1.8-0.1-2.2-0.2c-0.5-0.1-0.9-0.4-1.2-0.8c-0.3-0.4-0.5-0.8-0.5-1.3c0-0.6,0.2-1.1,0.7-1.6c0.3-0.3,0.7-0.5,1.2-0.6      l-2-2.9c-0.3-0.4-0.5-0.6-0.6-0.7c-0.2-0.1-0.4-0.2-0.6-0.2v-0.2h2.7l2.7,3.9H420.4z M420.4,496.3v-3.7h-0.4      c-0.6,0-1,0.1-1.3,0.2c-0.3,0.1-0.5,0.3-0.7,0.6c-0.2,0.3-0.2,0.6-0.2,1.1c0,0.6,0.2,1.1,0.5,1.4c0.3,0.3,0.8,0.5,1.5,0.5H420.4      z"
   id="path161"
   style="fill:#000000;fill-opacity:1" />
				<path
   d="M408.9,492.8c-0.8-0.2-1.4-0.4-1.7-0.7c-0.5-0.4-0.7-0.9-0.7-1.5c0-0.6,0.3-1.2,0.8-1.6c0.6-0.5,1.5-0.8,2.7-0.8h4.3      v0.2c-0.4,0-0.7,0-0.8,0.1c-0.1,0.1-0.2,0.2-0.3,0.3s-0.1,0.4-0.1,0.9v5.5c0,0.5,0,0.7,0.1,0.9s0.2,0.2,0.3,0.3      c0.1,0.1,0.4,0.1,0.8,0.1v0.2h-4.1c-1,0-1.7-0.1-2.1-0.3c-0.4-0.2-0.7-0.4-1-0.8s-0.4-0.7-0.4-1.1c0-0.4,0.1-0.8,0.4-1.1      C407.6,493.3,408.1,493,408.9,492.8z M411.2,492.5v-2.7l0-0.3c0-0.2-0.1-0.4-0.2-0.5s-0.3-0.2-0.5-0.2c-0.3,0-0.6,0.1-0.9,0.2      c-0.3,0.1-0.5,0.4-0.6,0.6s-0.2,0.6-0.2,0.9c0,0.4,0.1,0.8,0.3,1.1c0.2,0.3,0.4,0.5,0.8,0.7S410.5,492.5,411.2,492.5z       M411.2,493c-0.6,0-1,0.1-1.3,0.2s-0.5,0.3-0.6,0.6s-0.2,0.6-0.2,0.9s0.1,0.7,0.2,0.9c0.1,0.2,0.4,0.4,0.6,0.5      c0.3,0.1,0.7,0.2,1.3,0.2V493z"
   id="path163"
   style="fill:#000000;fill-opacity:1" />
				<path
   d="M401.4,488.5v-0.2h4.4v0.2h-0.3c-0.2,0-0.4,0-0.6,0.1c-0.1,0.1-0.2,0.2-0.2,0.3c0,0.1-0.1,0.4-0.1,0.8v5.6      c0,0.4,0,0.7,0.1,0.8s0.1,0.2,0.3,0.3c0.1,0.1,0.3,0.1,0.6,0.1h0.3v0.2h-4.4v-0.2h0.3c0.2,0,0.4,0,0.6-0.1      c0.1-0.1,0.2-0.2,0.3-0.3c0-0.1,0.1-0.4,0.1-0.8v-5.6c0-0.4,0-0.7-0.1-0.8c0-0.1-0.1-0.2-0.3-0.3c-0.1-0.1-0.3-0.1-0.6-0.1      H401.4z"
   id="path165"
   style="fill:#000000;fill-opacity:1" />
				<path
   d="M393,496.8v-2.3h0.2c0.1,0.5,0.3,0.9,0.4,1.1c0.2,0.2,0.4,0.4,0.7,0.6c0.2,0.1,0.4,0.1,0.8,0.1h0.6v-6.5      c0-0.4,0-0.7-0.1-0.8c0-0.1-0.1-0.2-0.3-0.3c-0.1-0.1-0.3-0.1-0.6-0.1h-0.3v-0.2h4.4v0.2h-0.3c-0.2,0-0.4,0-0.6,0.1      c-0.1,0.1-0.2,0.2-0.3,0.3c0,0.1-0.1,0.4-0.1,0.8v6.5h0.6c0.6,0,1-0.1,1.2-0.4c0.4-0.3,0.6-0.8,0.7-1.4h0.2v2.3H393z"
   id="path167"
   style="fill:#000000;fill-opacity:1" />
				<path
   d="M388.1,490.7h3l0.4-0.8c0.1-0.3,0.2-0.5,0.2-0.7c0-0.2-0.1-0.4-0.3-0.5c-0.1-0.1-0.4-0.1-0.8-0.1v-0.2h2.8v0.2      c-0.3,0-0.6,0.2-0.8,0.4c-0.2,0.2-0.4,0.6-0.7,1.3l-3,6.8h-0.1l-3.1-6.9c-0.3-0.7-0.5-1.1-0.7-1.2c-0.1-0.1-0.3-0.2-0.6-0.2      v-0.2h4.1v0.2h-0.2c-0.3,0-0.6,0-0.7,0.1c-0.1,0.1-0.1,0.2-0.1,0.3c0,0.1,0,0.2,0,0.2c0,0,0.1,0.2,0.2,0.5L388.1,490.7z       M388.4,491.2l1.3,2.9l1.3-2.9H388.4z"
   id="path169"
   style="fill:#000000;fill-opacity:1" />
				<path
   d="M376.1,491.3l0.3-3h7.5v0.2h-0.3c-0.2,0-0.4,0-0.6,0.1c-0.1,0.1-0.2,0.2-0.2,0.3c0,0.1-0.1,0.4-0.1,0.8v5.6      c0,0.4,0,0.7,0.1,0.8s0.1,0.2,0.3,0.3c0.1,0.1,0.3,0.1,0.6,0.1h0.3v0.2h-4.5v-0.2h0.4c0.2,0,0.4,0,0.6-0.1      c0.1-0.1,0.2-0.2,0.3-0.3c0-0.1,0.1-0.4,0.1-0.8v-5.4c0-0.4,0-0.7-0.1-0.8c0-0.1-0.1-0.2-0.3-0.3c-0.1,0-0.4-0.1-0.8-0.1h-0.7      c-0.5,0-0.8,0.1-1.1,0.2c-0.3,0.2-0.6,0.4-0.8,0.8s-0.4,0.8-0.6,1.5H376.1z"
   id="path171"
   style="fill:#000000;fill-opacity:1" />
				<path
   d="M369.7,497l-0.1-2.8h0.3c0.1,0.7,0.4,1.3,0.9,1.7c0.5,0.4,1,0.6,1.5,0.6c0.4,0,0.8-0.1,1-0.3c0.2-0.2,0.4-0.5,0.4-0.8      c0-0.2,0-0.4-0.1-0.5c-0.1-0.2-0.3-0.4-0.6-0.6c-0.2-0.1-0.6-0.4-1.4-0.7c-1-0.5-1.7-0.9-2-1.4c-0.3-0.4-0.5-0.9-0.5-1.5      c0-0.7,0.3-1.3,0.8-1.8c0.6-0.5,1.3-0.8,2.1-0.8c0.3,0,0.5,0,0.8,0.1c0.2,0.1,0.5,0.2,0.9,0.3c0.2,0.1,0.4,0.1,0.5,0.1      c0.1,0,0.2,0,0.3-0.1c0.1-0.1,0.2-0.2,0.3-0.4h0.2v3.2h-0.2c-0.2-0.9-0.5-1.6-1.1-2.1c-0.5-0.5-1.1-0.7-1.7-0.7      c-0.5,0-0.8,0.1-1.1,0.4c-0.3,0.3-0.4,0.6-0.4,0.9c0,0.2,0.1,0.4,0.2,0.6c0.1,0.2,0.3,0.4,0.5,0.5c0.2,0.2,0.6,0.4,1.1,0.7      c0.8,0.4,1.3,0.7,1.7,1s0.6,0.6,0.8,0.9s0.3,0.7,0.3,1.1c0,0.7-0.2,1.2-0.7,1.7c-0.5,0.5-1.1,0.7-1.9,0.7c-0.3,0-0.5,0-0.8-0.1      c-0.2-0.1-0.4-0.1-0.7-0.3s-0.5-0.2-0.6-0.2c-0.1,0-0.2,0-0.3,0.1c-0.1,0.1-0.1,0.2-0.2,0.5H369.7z"
   id="path173"
   style="fill:#000000;fill-opacity:1" />
			</g>
		</g>
		<g
   id="g187"
   style="fill:#000000;fill-opacity:1">
			<g
   id="g185"
   style="fill:#000000;fill-opacity:1">
				<path
   d="M462.1,496.8v-2.3h0.2c0.1,0.5,0.3,0.9,0.4,1.1c0.2,0.2,0.4,0.4,0.7,0.6c0.2,0.1,0.4,0.1,0.8,0.1h0.6v-6.5      c0-0.4,0-0.7-0.1-0.8c0-0.1-0.1-0.2-0.3-0.3c-0.1-0.1-0.3-0.1-0.6-0.1h-0.3v-0.2h4.4v0.2h-0.3c-0.2,0-0.4,0-0.6,0.1      c-0.1,0.1-0.2,0.2-0.3,0.3c0,0.1-0.1,0.4-0.1,0.8v6.5h0.6c0.6,0,1-0.1,1.2-0.4c0.4-0.3,0.6-0.8,0.7-1.4h0.2v2.3H462.1z"
   id="path179"
   style="fill:#000000;fill-opacity:1" />
				<path
   d="M458.2,492.4v-2.6c0-0.4,0-0.7-0.1-0.8c0-0.1-0.1-0.2-0.3-0.3c-0.1-0.1-0.3-0.1-0.6-0.1H457v-0.2h4.4v0.2h-0.3      c-0.2,0-0.4,0-0.6,0.1c-0.1,0.1-0.2,0.2-0.2,0.3c0,0.1-0.1,0.4-0.1,0.8v5.6c0,0.4,0,0.7,0.1,0.8s0.1,0.2,0.3,0.3      c0.1,0.1,0.3,0.1,0.6,0.1h0.3v0.2H457v-0.2h0.3c0.2,0,0.4,0,0.6-0.1c0.1-0.1,0.2-0.2,0.3-0.3c0-0.1,0.1-0.4,0.1-0.8v-2.4h-3v2.4      c0,0.4,0,0.7,0.1,0.8s0.1,0.2,0.3,0.3c0.1,0.1,0.3,0.1,0.6,0.1h0.3v0.2h-4.4v-0.2h0.3c0.2,0,0.4,0,0.6-0.1      c0.1-0.1,0.2-0.2,0.3-0.3c0-0.1,0.1-0.4,0.1-0.8v-5.6c0-0.4,0-0.7-0.1-0.8c0-0.1-0.1-0.2-0.3-0.3c-0.1-0.1-0.3-0.1-0.6-0.1h-0.3      v-0.2h4.4v0.2h-0.3c-0.2,0-0.4,0-0.6,0.1c-0.1,0.1-0.2,0.2-0.3,0.3c0,0.1-0.1,0.4-0.1,0.8v2.6H458.2z"
   id="path181"
   style="fill:#000000;fill-opacity:1" />
				<path
   d="M448.2,496.3v-3.4H448c-0.5,0-0.9,0.2-1.2,0.5c-0.2,0.3-0.4,0.8-0.5,1.5h-0.2v-4.4h0.2c0,0.5,0.2,0.9,0.3,1.2      c0.2,0.3,0.3,0.5,0.6,0.6c0.2,0.1,0.5,0.2,0.9,0.2V490c0-0.5,0-0.8-0.1-0.9c0-0.1-0.1-0.2-0.2-0.3c-0.1-0.1-0.3-0.1-0.5-0.1      h-0.5c-0.8,0-1.4,0.2-1.9,0.5s-0.8,0.9-1,1.7h-0.2l0.4-2.7h7.3v0.2h-0.3c-0.2,0-0.4,0-0.6,0.1c-0.1,0.1-0.2,0.2-0.2,0.3      c0,0.1-0.1,0.4-0.1,0.8v5.6c0,0.4,0,0.6,0,0.7c0,0.1,0.1,0.3,0.2,0.3c0.2,0.1,0.4,0.2,0.6,0.2h0.3v0.2h-7.1v-2.5h0.2      c0.1,0.6,0.3,1.1,0.5,1.3s0.5,0.5,0.9,0.6c0.2,0.1,0.7,0.1,1.3,0.1H448.2z"
   id="path183"
   style="fill:#000000;fill-opacity:1" />
			</g>
		</g>
		<g
   id="g193"
   style="fill:#000000;fill-opacity:1">
			<g
   id="g191"
   style="fill:#000000;fill-opacity:1">
				<path
   d="M431.2,501.1c-2,0.1-3.7-0.5-4.9-1.8c-1.3-1.2-1.9-2.8-1.9-4.7c0-1.6,0.5-3,1.4-4.2c1.2-1.6,3-2.4,5.3-2.4      c2.3,0,4,0.8,5.3,2.3c1,1.2,1.5,2.7,1.5,4.3c0,1.9-0.6,3.4-1.9,4.7S433,501.2,431.2,501.1z M431.1,500.5c1.2,0,2-0.6,2.6-1.8      c0.5-1,0.7-2.4,0.7-4.2c0-2.2-0.4-3.8-1.1-4.8c-0.5-0.7-1.3-1.1-2.2-1.1c-0.6,0-1.2,0.2-1.6,0.5c-0.5,0.4-1,1-1.3,1.9      s-0.5,2-0.5,3.4c0,1.7,0.2,2.9,0.5,3.8c0.3,0.8,0.7,1.4,1.2,1.8C429.9,500.4,430.4,500.5,431.1,500.5z"
   id="path189"
   style="fill:#000000;fill-opacity:1" />
			</g>
		</g>
	</g>
</g>
</svg>
