<?xml version="1.0" encoding="UTF-8" standalone="no"?>
<!-- Generator: Adobe Illustrator 25.2.3, SVG Export Plug-In . SVG Version: 6.00 Build 0)  -->

<svg
   version="1.1"
   x="0px"
   y="0px"
   viewBox="0 0 792 1224"
   style="enable-background:new 0 0 792 1224;"
   xml:space="preserve"
   id="svg215"
   sodipodi:docname="TheOrbitals_v2-32mm-Front-ink.svg"
   inkscape:version="1.1 (c68e22c387, 2021-05-23)"
   xmlns:inkscape="http://www.inkscape.org/namespaces/inkscape"
   xmlns:sodipodi="http://sodipodi.sourceforge.net/DTD/sodipodi-0.dtd"
   xmlns="http://www.w3.org/2000/svg"
   xmlns:svg="http://www.w3.org/2000/svg"><defs
   id="defs219">
	
	
	
	
	
	
	
	
	
	
	

		
		
		
		
	
		
		
		
		
	
		
		
		
		
	
	
	
</defs><sodipodi:namedview
   id="namedview217"
   pagecolor="#ffffff"
   bordercolor="#666666"
   borderopacity="1.0"
   inkscape:pageshadow="2"
   inkscape:pageopacity="0.0"
   inkscape:pagecheckerboard="0"
   showgrid="false"
   inkscape:zoom="2.8529412"
   inkscape:cx="421.14433"
   inkscape:cy="598.15463"
   inkscape:window-width="2560"
   inkscape:window-height="1377"
   inkscape:window-x="-8"
   inkscape:window-y="-8"
   inkscape:window-maximized="1"
   inkscape:current-layer="svg215" />
<style
   type="text/css"
   id="style2">
	.st0{fill:none;stroke:#000000;stroke-width:0.5;stroke-linecap:round;stroke-linejoin:round;}
	.st1{fill:none;stroke:#000000;stroke-width:0.25;stroke-linejoin:round;stroke-dasharray:3,1.5;}
	.st2{fill:none;stroke:#C80000;stroke-linecap:round;stroke-linejoin:round;}
	.st3{display:none;}
	.st4{display:inline;}
	.st5{font-family:'TimesNewRomanPS-BoldMT';}
	.st6{font-size:15.9px;}
	.st7{font-size:19.1px;}
	.st8{font-size:12.8px;}
	.st9{fill:none;}
	.st10{font-size:13px;}
	.st11{fill:none;stroke:#231F20;stroke-linecap:square;stroke-miterlimit:10;}
</style>
<path
   class="st0"
   d="m 465.2,545.9 c 145.5,-34.5 153.8,-36 167.2,-36 20.4,0 31.4,7.1 39.9,25.6"
   id="path4" /><path
   class="st0"
   d="m 672.3,572.2 c -8.5,18.5 -19.5,25.5 -39.9,25.5 -13.4,0 -21.8,-1.5 -167.2,-36"
   id="path6" /><path
   class="st0"
   d="m 167.3,572.2 c 8.5,18.5 19.5,25.5 39.9,25.5 13.4,0 21.4,-1.5 166.9,-36"
   id="path8" /><path
   class="st0"
   d="m 374.1,545.9 c -145.5,-34.5 -153.5,-36 -166.9,-36 -20.4,0 -31.4,7.1 -39.9,25.6"
   id="path10"
   style="stroke-width:0.5;stroke-miterlimit:4;stroke-dasharray:none" /><path
   class="st0"
   d="m 376.4,568.3 c -127.8,59.4 -149.2,63.4 -169.2,63.4 -36,0 -67.3,-24.7 -75.8,-59.6"
   id="path14" /><path
   class="st0"
   d="M 376.4,539.3 C 248.6,479.9 227.2,475.9 207.2,475.9 c -36,0 -67.3,24.7 -75.8,59.6"
   id="path16"
   style="stroke-width:0.5;stroke-miterlimit:4;stroke-dasharray:none" /><path
   class="st0"
   d="m 462.8,568.3 c 127.8,59.4 149.5,63.4 169.6,63.4 36,0 67.3,-24.7 75.8,-59.6"
   id="path18" /><path
   class="st0"
   d="m 462.8,539.3 c 127.8,-59.4 149.5,-63.4 169.6,-63.4 36,0 67.3,24.7 75.8,59.6"
   id="path20" /><line
   class="st0"
   x1="632.40002"
   y1="631.79999"
   x2="207.2"
   y2="631.79999"
   id="line22" /><line
   class="st0"
   x1="207.2"
   y1="475.79999"
   x2="632.40002"
   y2="475.79999"
   id="line24"
   style="stroke-width:0.5;stroke-miterlimit:4;stroke-dasharray:none" /><path
   class="st1"
   d="M 374.8,543.5 C 236.1,499.6 223.1,497.2 207.2,497.2 c -29.4,0 -44.1,10.5 -53.7,38.4"
   id="path26"
   style="stroke-width:0.5;stroke-miterlimit:4;stroke-dasharray:2,2;stroke-dashoffset:0" /><path
   class="st1"
   d="m 464.5,543.5 c 138.7,-43.9 152.1,-46.3 167.9,-46.3 29.4,0 44.1,10.5 53.7,38.4"
   id="path28"
   style="stroke-width:0.5;stroke-miterlimit:4;stroke-dasharray:2,2;stroke-dashoffset:0" /><path
   class="st1"
   d="m 153.6,572.2 c 9.5,27.8 24.2,38.3 53.6,38.3 15.8,0 28.9,-2.5 167.6,-46.3"
   id="path30"
   style="stroke-width:0.5;stroke-miterlimit:4;stroke-dasharray:2,2;stroke-dashoffset:0" /><path
   class="st1"
   d="m 686,572.2 c -9.5,27.8 -24.2,38.3 -53.6,38.3 -15.8,0 -29.3,-2.5 -167.9,-46.3"
   id="path32"
   style="stroke-width:0.5;stroke-miterlimit:4;stroke-dasharray:2,2;stroke-dashoffset:0" /><path
   class="st1"
   d="m 207.2,585 c 11.1,0 14.3,-0.8 166.4,-25.7"
   id="path36"
   style="stroke-width:0.5;stroke-miterlimit:4;stroke-dasharray:2,2;stroke-dashoffset:0" /><path
   class="st1"
   d="M 373.6,548.3 C 221.5,523.4 218.3,522.6 207.2,522.6"
   id="path38"
   style="stroke-width:0.5;stroke-miterlimit:4;stroke-dasharray:2,2;stroke-dashoffset:0" /><path
   class="st1"
   d="M 465.6,548.3 C 617.7,523.4 621.2,522.6 632.4,522.6"
   id="path40"
   style="stroke-width:0.5;stroke-miterlimit:4;stroke-dasharray:2,2;stroke-dashoffset:0" /><path
   class="st1"
   d="m 632.4,585 c -11.1,0 -14.6,-0.8 -166.8,-25.7"
   id="path42"
   style="stroke-width:0.5;stroke-miterlimit:4;stroke-dasharray:2,2;stroke-dashoffset:0" /><ellipse
   class="st1"
   cx="419.79999"
   cy="553.79999"
   rx="45.400002"
   ry="78"
   id="ellipse46"
   style="stroke-width:0.5;stroke-miterlimit:4;stroke-dasharray:2, 2;stroke-dashoffset:0" /><ellipse
   class="st1"
   cx="419.79999"
   cy="553.29999"
   rx="45.400002"
   ry="53.900002"
   id="ellipse48"
   style="stroke-width:0.5;stroke-miterlimit:4;stroke-dasharray:2, 2;stroke-dashoffset:0" />
<path
   class="st2"
   d="m 207.2,653 c -44.1,0 -82.8,-29.3 -94.7,-71.7 -1.7,-5.9 0.6,-9.1 6.8,-9.1 19.8,0 39.6,0 59.4,0 2.3,0 3.8,0.7 5.3,2.4 19.1,21.4 54.5,7.8 54.4,-20.8 0,-28.7 -35.5,-42.1 -54.5,-20.7 -1.5,1.7 -3,2.4 -5.3,2.4 -20.1,0 -40.3,0 -60.4,0 -5.9,-0.4 -7.9,-3.4 -6.3,-9 12.2,-42.6 51.1,-71.9 95.4,-71.9 70.9,0 141.7,0 212.6,0 70.9,0 141.7,0 212.6,0 44.3,0 83.2,29.3 95.4,71.9 1.6,5.7 -0.4,8.6 -6.3,9 -20.1,0 -40.3,0 -60.4,0 -2.3,0 -3.8,-0.7 -5.3,-2.4 -19,-21.4 -54.4,-8 -54.5,20.7 -0.1,28.7 35.3,42.2 54.4,20.8 1.5,-1.7 3,-2.4 5.3,-2.4 19.8,0 39.6,0 59.4,0 6.2,0 8.5,3.1 6.8,9.1 -11.9,42.4 -50.6,71.7 -94.7,71.7 -70.9,0 -141.7,0 -212.6,0 -70.9,0 -141.9,0 -212.8,0 z"
   id="path51"
   style="vector-effect:non-scaling-stroke;stroke:#ff0000;stroke-width:0.01;stroke-miterlimit:4;stroke-dasharray:none;stroke-opacity:1;-inkscape-stroke:hairline" /><circle
   class="st2"
   cx="419.79999"
   cy="553.79999"
   r="45.400002"
   id="circle53"
   style="vector-effect:non-scaling-stroke;stroke:#ff0000;stroke-width:0.01;stroke-miterlimit:4;stroke-dasharray:none;stroke-opacity:1;-inkscape-stroke:hairline" />
<g
   id="Layer_02"
   class="st3">
	<g
   class="st4"
   id="g58">
		<text
   transform="matrix(0 -1 1 0 260.6182 558.2129)"
   class="st5 st6"
   id="text56">P</text>
	</g>
	<g
   class="st4"
   id="g62">
		<text
   transform="matrix(0 -1 1 0 360.4282 558.2129)"
   class="st5 st6"
   id="text60">S</text>
	</g>
	<g
   class="st4"
   id="g66">
		<text
   transform="matrix(0 -1 1 0 487.9922 557.7075)"
   class="st5 st6"
   id="text64">S</text>
	</g>
	<g
   class="st4"
   id="g70">
		<text
   transform="matrix(0 -1 1 0 589.6328 558.2129)"
   class="st5 st6"
   id="text68">P</text>
	</g>
	<g
   class="st4"
   id="g84">
		<g
   id="g74">
			<text
   transform="matrix(1 0 0 1 400.7275 616.252)"
   class="st5 st7"
   id="text72">O</text>
		</g>
		<g
   id="g78">
			<text
   transform="matrix(1 0 0 1 369.0869 612)"
   class="st5 st8"
   id="text76">THE</text>
		</g>
		<g
   id="g82">
			<text
   transform="matrix(1 0 0 1 415.4541 612)"
   class="st5 st8"
   id="text80">RBITALS</text>
		</g>
	</g>
	<g
   class="st4"
   id="g98">
		<g
   id="g88">
			<text
   transform="matrix(-1 0 0 -1 423.8223 494.6357)"
   class="st5 st8"
   id="text86">RBITALS</text>
		</g>
		<g
   id="g92">
			<text
   transform="matrix(-1 0 0 -1 470.1895 494.6357)"
   class="st5 st8"
   id="text90">THE</text>
		</g>
		<g
   id="g96">
			<text
   transform="matrix(-1 0 0 -1 438.5488 494.6357)"
   class="st5 st7"
   id="text94">O</text>
		</g>
	</g>
</g>
<g
   id="Layer_4">
	<g
   id="g105">
		<g
   id="g103">
			<path
   d="M255.9,553.9h2.9c0.6,0,0.9,0,1.1-0.1s0.3-0.2,0.4-0.4c0.1-0.2,0.1-0.5,0.1-1h0.3v5.3h-0.3c0-0.5,0-0.8-0.1-1     c-0.1-0.2-0.2-0.3-0.4-0.4s-0.5-0.1-1.1-0.1h-6.8c-0.6,0-0.9,0-1.1,0.1s-0.3,0.2-0.4,0.4c-0.1,0.2-0.1,0.5-0.1,1h-0.3v-4.6     c0-1.5,0.3-2.6,0.8-3.3c0.5-0.7,1.2-1,2-1c0.7,0,1.3,0.2,1.8,0.6c0.5,0.4,0.8,1,1,1.8C255.8,551.9,255.9,552.7,255.9,553.9z      M250.7,553.9h4.5c0-0.2,0-0.3,0-0.4c0-0.6-0.2-1.1-0.6-1.5c-0.4-0.3-1-0.5-1.7-0.5c-0.8,0-1.4,0.2-1.7,0.5     c-0.4,0.3-0.5,0.9-0.5,1.5V553.9z"
   id="path101" />
		</g>
	</g>
	<g
   id="g111">
		<g
   id="g109">
			<path
   d="M349.7,550.7l3.5-0.1v0.3c-0.9,0.2-1.6,0.5-2.1,1.1s-0.8,1.2-0.8,1.9c0,0.5,0.1,0.9,0.4,1.3c0.3,0.3,0.6,0.5,1,0.5     c0.2,0,0.4-0.1,0.6-0.2c0.2-0.1,0.5-0.4,0.7-0.7c0.2-0.2,0.5-0.8,0.9-1.7c0.6-1.2,1.2-2.1,1.7-2.5c0.5-0.4,1.2-0.6,1.8-0.6     c0.9,0,1.6,0.3,2.3,1c0.6,0.7,1,1.6,1,2.6c0,0.3,0,0.6-0.1,0.9c-0.1,0.3-0.2,0.7-0.4,1.1c-0.1,0.2-0.2,0.5-0.2,0.6     c0,0.1,0.1,0.3,0.2,0.4c0.1,0.2,0.3,0.3,0.5,0.4v0.3h-4v-0.3c1.1-0.2,2-0.7,2.6-1.3c0.6-0.6,0.9-1.3,0.9-2.1c0-0.6-0.2-1-0.5-1.4     s-0.7-0.5-1.1-0.5c-0.2,0-0.5,0.1-0.7,0.2c-0.2,0.1-0.5,0.3-0.7,0.6c-0.2,0.3-0.5,0.7-0.8,1.4c-0.5,1-0.9,1.6-1.2,2.1     c-0.3,0.4-0.7,0.7-1.1,1c-0.4,0.2-0.9,0.3-1.4,0.3c-0.8,0-1.6-0.3-2.1-0.9c-0.6-0.6-0.9-1.4-0.9-2.3c0-0.3,0-0.7,0.1-1     c0.1-0.2,0.2-0.5,0.3-0.9c0.2-0.3,0.3-0.6,0.3-0.7c0-0.1,0-0.2-0.1-0.3c-0.1-0.1-0.3-0.1-0.6-0.2V550.7z"
   id="path107" />
		</g>
	</g>
	<g
   id="g117">
		<g
   id="g115">
			<path
   d="M477.2,550.2l3.5-0.1v0.3c-0.9,0.2-1.6,0.5-2.1,1.1s-0.8,1.2-0.8,1.9c0,0.5,0.1,0.9,0.4,1.3c0.3,0.3,0.6,0.5,1,0.5     c0.2,0,0.4-0.1,0.6-0.2c0.2-0.1,0.5-0.4,0.7-0.7c0.2-0.2,0.5-0.8,0.9-1.7c0.6-1.2,1.2-2.1,1.7-2.5c0.5-0.4,1.2-0.6,1.8-0.6     c0.9,0,1.6,0.3,2.3,1c0.6,0.7,1,1.6,1,2.6c0,0.3,0,0.6-0.1,0.9s-0.2,0.7-0.4,1.1c-0.1,0.2-0.2,0.5-0.2,0.6c0,0.1,0.1,0.3,0.2,0.4     c0.1,0.2,0.3,0.3,0.5,0.4v0.3h-4v-0.3c1.1-0.2,2-0.7,2.6-1.3c0.6-0.6,0.9-1.3,0.9-2.1c0-0.6-0.2-1-0.5-1.4s-0.7-0.5-1.1-0.5     c-0.2,0-0.5,0.1-0.7,0.2c-0.2,0.1-0.5,0.3-0.7,0.6c-0.2,0.3-0.5,0.7-0.8,1.4c-0.5,1-0.9,1.6-1.2,2.1c-0.3,0.4-0.7,0.7-1.1,1     c-0.4,0.2-0.9,0.3-1.4,0.3c-0.8,0-1.6-0.3-2.1-0.9c-0.6-0.6-0.9-1.4-0.9-2.3c0-0.3,0-0.7,0.1-1c0.1-0.2,0.2-0.5,0.3-0.9     c0.2-0.3,0.3-0.6,0.3-0.7c0-0.1,0-0.2-0.1-0.3c-0.1-0.1-0.3-0.1-0.6-0.2V550.2z"
   id="path113" />
		</g>
	</g>
	<g
   id="g123">
		<g
   id="g121">
			<path
   d="M584.9,553.9h2.9c0.6,0,0.9,0,1.1-0.1s0.3-0.2,0.4-0.4c0.1-0.2,0.1-0.5,0.1-1h0.3v5.3h-0.3c0-0.5,0-0.8-0.1-1     c-0.1-0.2-0.2-0.3-0.4-0.4s-0.5-0.1-1.1-0.1H581c-0.6,0-0.9,0-1.1,0.1s-0.3,0.2-0.4,0.4c-0.1,0.2-0.1,0.5-0.1,1h-0.3v-4.6     c0-1.5,0.3-2.6,0.8-3.3c0.5-0.7,1.2-1,2-1c0.7,0,1.3,0.2,1.8,0.6c0.5,0.4,0.8,1,1,1.8C584.8,551.9,584.9,552.7,584.9,553.9z      M579.7,553.9h4.5c0-0.2,0-0.3,0-0.4c0-0.6-0.2-1.1-0.6-1.5c-0.4-0.3-1-0.5-1.7-0.5c-0.8,0-1.4,0.2-1.7,0.5     c-0.4,0.3-0.5,0.9-0.5,1.5V553.9z"
   id="path119" />
		</g>
	</g>
	<g
   id="g159">
		<g
   id="g129">
			<g
   id="g127">
				<path
   d="M408.1,610.2c2-0.1,3.7,0.5,4.9,1.8c1.3,1.2,1.9,2.8,1.9,4.7c0,1.6-0.5,3-1.4,4.2c-1.2,1.6-3,2.4-5.3,2.4      c-2.3,0-4-0.8-5.3-2.3c-1-1.2-1.5-2.7-1.5-4.3c0-1.9,0.6-3.4,1.9-4.7S406.2,610.1,408.1,610.2z M408.2,610.8      c-1.2,0-2,0.6-2.6,1.8c-0.5,1-0.7,2.4-0.7,4.2c0,2.2,0.4,3.8,1.1,4.8c0.5,0.7,1.3,1.1,2.2,1.1c0.6,0,1.2-0.2,1.6-0.5      c0.5-0.4,1-1,1.3-1.9s0.5-2,0.5-3.4c0-1.7-0.2-2.9-0.5-3.8c-0.3-0.8-0.7-1.4-1.2-1.8C409.4,611,408.8,610.8,408.2,610.8z"
   id="path125" />
			</g>
		</g>
		<g
   id="g139">
			<g
   id="g137">
				<path
   d="M377.2,614.5v2.3h-0.2c-0.1-0.5-0.3-0.9-0.4-1.1c-0.2-0.2-0.4-0.4-0.7-0.6c-0.2-0.1-0.4-0.1-0.8-0.1h-0.6v6.5      c0,0.4,0,0.7,0.1,0.8c0,0.1,0.1,0.2,0.3,0.3c0.1,0.1,0.3,0.1,0.6,0.1h0.3v0.2h-4.4v-0.2h0.3c0.2,0,0.4,0,0.6-0.1      c0.1-0.1,0.2-0.2,0.3-0.3c0-0.1,0.1-0.4,0.1-0.8V615h-0.6c-0.6,0-1,0.1-1.2,0.4c-0.4,0.3-0.6,0.8-0.7,1.4h-0.2v-2.3H377.2z"
   id="path131" />
				<path
   d="M381.1,618.9v2.6c0,0.4,0,0.7,0.1,0.8c0,0.1,0.1,0.2,0.3,0.3c0.1,0.1,0.3,0.1,0.6,0.1h0.3v0.2h-4.4v-0.2h0.3      c0.2,0,0.4,0,0.6-0.1c0.1-0.1,0.2-0.2,0.2-0.3c0-0.1,0.1-0.4,0.1-0.8v-5.6c0-0.4,0-0.7-0.1-0.8s-0.1-0.2-0.3-0.3      c-0.1-0.1-0.3-0.1-0.6-0.1h-0.3v-0.2h4.4v0.2H382c-0.2,0-0.4,0-0.6,0.1c-0.1,0.1-0.2,0.2-0.3,0.3c0,0.1-0.1,0.4-0.1,0.8v2.4h3      v-2.4c0-0.4,0-0.7-0.1-0.8s-0.1-0.2-0.3-0.3c-0.1-0.1-0.3-0.1-0.6-0.1h-0.3v-0.2h4.4v0.2h-0.3c-0.2,0-0.4,0-0.6,0.1      c-0.1,0.1-0.2,0.2-0.3,0.3c0,0.1-0.1,0.4-0.1,0.8v5.6c0,0.4,0,0.7,0.1,0.8c0,0.1,0.1,0.2,0.3,0.3c0.1,0.1,0.3,0.1,0.6,0.1h0.3      v0.2h-4.4v-0.2h0.3c0.2,0,0.4,0,0.6-0.1c0.1-0.1,0.2-0.2,0.3-0.3c0-0.1,0.1-0.4,0.1-0.8v-2.6H381.1z"
   id="path133" />
				<path
   d="M391.1,615v3.4h0.2c0.5,0,0.9-0.2,1.2-0.5c0.2-0.3,0.4-0.8,0.5-1.5h0.2v4.4h-0.2c0-0.5-0.2-0.9-0.3-1.2      c-0.2-0.3-0.3-0.5-0.6-0.6c-0.2-0.1-0.5-0.2-0.9-0.2v2.4c0,0.5,0,0.8,0.1,0.9c0,0.1,0.1,0.2,0.2,0.3c0.1,0.1,0.3,0.1,0.5,0.1      h0.5c0.8,0,1.4-0.2,1.9-0.5s0.8-0.9,1-1.7h0.2l-0.4,2.7h-7.3v-0.2h0.3c0.2,0,0.4,0,0.6-0.1c0.1-0.1,0.2-0.2,0.2-0.3      c0-0.1,0.1-0.4,0.1-0.8v-5.6c0-0.4,0-0.6,0-0.7c0-0.1-0.1-0.3-0.2-0.3c-0.2-0.1-0.4-0.2-0.6-0.2h-0.3v-0.2h7.1v2.5h-0.2      c-0.1-0.6-0.3-1.1-0.5-1.3s-0.5-0.5-0.9-0.6c-0.2-0.1-0.7-0.1-1.3-0.1H391.1z"
   id="path135" />
			</g>
		</g>
		<g
   id="g157">
			<g
   id="g155">
				<path
   d="M418.9,619.1v2.4c0,0.5,0,0.7,0.1,0.9c0.1,0.1,0.2,0.2,0.3,0.3s0.4,0.1,0.8,0.1v0.2h-4.3v-0.2c0.4,0,0.7,0,0.8-0.1      c0.1-0.1,0.2-0.2,0.3-0.3s0.1-0.4,0.1-0.9V616c0-0.5,0-0.7-0.1-0.9s-0.2-0.2-0.3-0.3c-0.1-0.1-0.4-0.1-0.8-0.1v-0.2h3.9      c1,0,1.8,0.1,2.2,0.2c0.5,0.1,0.9,0.4,1.2,0.8c0.3,0.4,0.5,0.8,0.5,1.3c0,0.6-0.2,1.1-0.7,1.6c-0.3,0.3-0.7,0.5-1.2,0.6l2,2.9      c0.3,0.4,0.5,0.6,0.6,0.7c0.2,0.1,0.4,0.2,0.6,0.2v0.2h-2.7l-2.7-3.9H418.9z M418.9,614.9v3.7h0.4c0.6,0,1-0.1,1.3-0.2      c0.3-0.1,0.5-0.3,0.7-0.6c0.2-0.3,0.2-0.6,0.2-1.1c0-0.6-0.2-1.1-0.5-1.4c-0.3-0.3-0.8-0.5-1.5-0.5H418.9z"
   id="path141" />
				<path
   d="M430.4,618.5c0.8,0.2,1.4,0.4,1.7,0.7c0.5,0.4,0.7,0.9,0.7,1.5c0,0.6-0.3,1.2-0.8,1.6c-0.6,0.5-1.5,0.8-2.7,0.8H425      v-0.2c0.4,0,0.7,0,0.8-0.1c0.1-0.1,0.2-0.2,0.3-0.3s0.1-0.4,0.1-0.9V616c0-0.5,0-0.7-0.1-0.9s-0.2-0.2-0.3-0.3      c-0.1-0.1-0.4-0.1-0.8-0.1v-0.2h4.1c1,0,1.7,0.1,2.1,0.3c0.4,0.2,0.7,0.4,1,0.8s0.4,0.7,0.4,1.1c0,0.4-0.1,0.8-0.4,1.1      C431.7,618,431.1,618.3,430.4,618.5z M428.1,618.8v2.7l0,0.3c0,0.2,0.1,0.4,0.2,0.5s0.3,0.2,0.5,0.2c0.3,0,0.6-0.1,0.9-0.2      c0.3-0.1,0.5-0.4,0.6-0.6s0.2-0.6,0.2-0.9c0-0.4-0.1-0.8-0.3-1.1c-0.2-0.3-0.4-0.5-0.8-0.7S428.8,618.8,428.1,618.8z       M428.1,618.3c0.6,0,1-0.1,1.3-0.2s0.5-0.3,0.6-0.6s0.2-0.6,0.2-0.9s-0.1-0.7-0.2-0.9c-0.1-0.2-0.4-0.4-0.6-0.5      c-0.3-0.1-0.7-0.2-1.3-0.2V618.3z"
   id="path143" />
				<path
   d="M437.9,622.7v0.2h-4.4v-0.2h0.3c0.2,0,0.4,0,0.6-0.1c0.1-0.1,0.2-0.2,0.2-0.3c0-0.1,0.1-0.4,0.1-0.8v-5.6      c0-0.4,0-0.7-0.1-0.8s-0.1-0.2-0.3-0.3c-0.1-0.1-0.3-0.1-0.6-0.1h-0.3v-0.2h4.4v0.2h-0.3c-0.2,0-0.4,0-0.6,0.1      c-0.1,0.1-0.2,0.2-0.3,0.3c0,0.1-0.1,0.4-0.1,0.8v5.6c0,0.4,0,0.7,0.1,0.8c0,0.1,0.1,0.2,0.3,0.3c0.1,0.1,0.3,0.1,0.6,0.1H437.9      z"
   id="path145" />
				<path
   d="M446.3,614.5v2.3h-0.2c-0.1-0.5-0.3-0.9-0.4-1.1c-0.2-0.2-0.4-0.4-0.7-0.6c-0.2-0.1-0.4-0.1-0.8-0.1h-0.6v6.5      c0,0.4,0,0.7,0.1,0.8c0,0.1,0.1,0.2,0.3,0.3c0.1,0.1,0.3,0.1,0.6,0.1h0.3v0.2h-4.4v-0.2h0.3c0.2,0,0.4,0,0.6-0.1      c0.1-0.1,0.2-0.2,0.3-0.3c0-0.1,0.1-0.4,0.1-0.8V615h-0.6c-0.6,0-1,0.1-1.2,0.4c-0.4,0.3-0.6,0.8-0.7,1.4h-0.2v-2.3H446.3z"
   id="path147" />
				<path
   d="M451.1,620.5h-3l-0.4,0.8c-0.1,0.3-0.2,0.5-0.2,0.7c0,0.2,0.1,0.4,0.3,0.5c0.1,0.1,0.4,0.1,0.8,0.1v0.2h-2.8v-0.2      c0.3,0,0.6-0.2,0.8-0.4c0.2-0.2,0.4-0.6,0.7-1.3l3-6.8h0.1l3.1,6.9c0.3,0.7,0.5,1.1,0.7,1.2c0.1,0.1,0.3,0.2,0.6,0.2v0.2h-4.1      v-0.2h0.2c0.3,0,0.6,0,0.7-0.1c0.1-0.1,0.1-0.2,0.1-0.3c0-0.1,0-0.2,0-0.2c0,0-0.1-0.2-0.2-0.5L451.1,620.5z M450.9,620.1      l-1.3-2.9l-1.3,2.9H450.9z"
   id="path149" />
				<path
   d="M463.1,620l-0.3,3h-7.5v-0.2h0.3c0.2,0,0.4,0,0.6-0.1c0.1-0.1,0.2-0.2,0.2-0.3c0-0.1,0.1-0.4,0.1-0.8v-5.6      c0-0.4,0-0.7-0.1-0.8s-0.1-0.2-0.3-0.3c-0.1-0.1-0.3-0.1-0.6-0.1h-0.3v-0.2h4.5v0.2h-0.4c-0.2,0-0.4,0-0.6,0.1      c-0.1,0.1-0.2,0.2-0.3,0.3c0,0.1-0.1,0.4-0.1,0.8v5.4c0,0.4,0,0.7,0.1,0.8c0,0.1,0.1,0.2,0.3,0.3c0.1,0,0.4,0.1,0.8,0.1h0.7      c0.5,0,0.8-0.1,1.1-0.2c0.3-0.2,0.6-0.4,0.8-0.8s0.4-0.8,0.6-1.5H463.1z"
   id="path151" />
				<path
   d="M469.6,614.3l0.1,2.8h-0.3c-0.1-0.7-0.4-1.3-0.9-1.7c-0.5-0.4-1-0.6-1.5-0.6c-0.4,0-0.8,0.1-1,0.3      c-0.2,0.2-0.4,0.5-0.4,0.8c0,0.2,0,0.4,0.1,0.5c0.1,0.2,0.3,0.4,0.6,0.6c0.2,0.1,0.6,0.4,1.4,0.7c1,0.5,1.7,0.9,2,1.4      c0.3,0.4,0.5,0.9,0.5,1.5c0,0.7-0.3,1.3-0.8,1.8c-0.6,0.5-1.3,0.8-2.1,0.8c-0.3,0-0.5,0-0.8-0.1c-0.2-0.1-0.5-0.2-0.9-0.3      c-0.2-0.1-0.4-0.1-0.5-0.1c-0.1,0-0.2,0-0.3,0.1c-0.1,0.1-0.2,0.2-0.3,0.4h-0.2v-3.2h0.2c0.2,0.9,0.5,1.6,1.1,2.1      c0.5,0.5,1.1,0.7,1.7,0.7c0.5,0,0.8-0.1,1.1-0.4c0.3-0.3,0.4-0.6,0.4-0.9c0-0.2-0.1-0.4-0.2-0.6c-0.1-0.2-0.3-0.4-0.5-0.5      c-0.2-0.2-0.6-0.4-1.1-0.7c-0.8-0.4-1.3-0.7-1.7-1s-0.6-0.6-0.8-0.9s-0.3-0.7-0.3-1.1c0-0.7,0.2-1.2,0.7-1.7      c0.5-0.5,1.1-0.7,1.9-0.7c0.3,0,0.5,0,0.8,0.1c0.2,0.1,0.4,0.1,0.7,0.3s0.5,0.2,0.6,0.2c0.1,0,0.2,0,0.3-0.1      c0.1-0.1,0.1-0.2,0.2-0.5H469.6z"
   id="path153" />
			</g>
		</g>
	</g>
	<g
   id="g195">
		<g
   id="g177">
			<g
   id="g175">
				<path
   d="M420.4,487.8v-2.4c0-0.5,0-0.7-0.1-0.9c-0.1-0.1-0.2-0.2-0.3-0.3s-0.4-0.1-0.8-0.1V484h4.3v0.2c-0.4,0-0.7,0-0.8,0.1      c-0.1,0.1-0.2,0.2-0.3,0.3s-0.1,0.4-0.1,0.9v5.5c0,0.5,0,0.7,0.1,0.9s0.2,0.2,0.3,0.3c0.1,0.1,0.4,0.1,0.8,0.1v0.2h-3.9      c-1,0-1.8-0.1-2.2-0.2c-0.5-0.1-0.9-0.4-1.2-0.8c-0.3-0.4-0.5-0.8-0.5-1.3c0-0.6,0.2-1.1,0.7-1.6c0.3-0.3,0.7-0.5,1.2-0.6      l-2-2.9c-0.3-0.4-0.5-0.6-0.6-0.7c-0.2-0.1-0.4-0.2-0.6-0.2V484h2.7l2.7,3.9H420.4z M420.4,492v-3.7h-0.4c-0.6,0-1,0.1-1.3,0.2      c-0.3,0.1-0.5,0.3-0.7,0.6c-0.2,0.3-0.2,0.6-0.2,1.1c0,0.6,0.2,1.1,0.5,1.4c0.3,0.3,0.8,0.5,1.5,0.5H420.4z"
   id="path161" />
				<path
   d="M408.9,488.5c-0.8-0.2-1.4-0.4-1.7-0.7c-0.5-0.4-0.7-0.9-0.7-1.5c0-0.6,0.3-1.2,0.8-1.6c0.6-0.5,1.5-0.8,2.7-0.8h4.3      v0.2c-0.4,0-0.7,0-0.8,0.1c-0.1,0.1-0.2,0.2-0.3,0.3s-0.1,0.4-0.1,0.9v5.5c0,0.5,0,0.7,0.1,0.9s0.2,0.2,0.3,0.3      c0.1,0.1,0.4,0.1,0.8,0.1v0.2h-4.1c-1,0-1.7-0.1-2.1-0.3c-0.4-0.2-0.7-0.4-1-0.8s-0.4-0.7-0.4-1.1c0-0.4,0.1-0.8,0.4-1.1      C407.6,488.9,408.1,488.7,408.9,488.5z M411.2,488.2v-2.7l0-0.3c0-0.2-0.1-0.4-0.2-0.5s-0.3-0.2-0.5-0.2c-0.3,0-0.6,0.1-0.9,0.2      c-0.3,0.1-0.5,0.4-0.6,0.6s-0.2,0.6-0.2,0.9c0,0.4,0.1,0.8,0.3,1.1c0.2,0.3,0.4,0.5,0.8,0.7S410.5,488.2,411.2,488.2z       M411.2,488.6c-0.6,0-1,0.1-1.3,0.2s-0.5,0.3-0.6,0.6s-0.2,0.6-0.2,0.9s0.1,0.7,0.2,0.9c0.1,0.2,0.4,0.4,0.6,0.5      c0.3,0.1,0.7,0.2,1.3,0.2V488.6z"
   id="path163" />
				<path
   d="M401.4,484.2V484h4.4v0.2h-0.3c-0.2,0-0.4,0-0.6,0.1c-0.1,0.1-0.2,0.2-0.2,0.3c0,0.1-0.1,0.4-0.1,0.8v5.6      c0,0.4,0,0.7,0.1,0.8s0.1,0.2,0.3,0.3c0.1,0.1,0.3,0.1,0.6,0.1h0.3v0.2h-4.4v-0.2h0.3c0.2,0,0.4,0,0.6-0.1      c0.1-0.1,0.2-0.2,0.3-0.3c0-0.1,0.1-0.4,0.1-0.8v-5.6c0-0.4,0-0.7-0.1-0.8c0-0.1-0.1-0.2-0.3-0.3c-0.1-0.1-0.3-0.1-0.6-0.1      H401.4z"
   id="path165" />
				<path
   d="M393,492.5v-2.3h0.2c0.1,0.5,0.3,0.9,0.4,1.1c0.2,0.2,0.4,0.4,0.7,0.6c0.2,0.1,0.4,0.1,0.8,0.1h0.6v-6.5      c0-0.4,0-0.7-0.1-0.8c0-0.1-0.1-0.2-0.3-0.3c-0.1-0.1-0.3-0.1-0.6-0.1h-0.3V484h4.4v0.2h-0.3c-0.2,0-0.4,0-0.6,0.1      c-0.1,0.1-0.2,0.2-0.3,0.3c0,0.1-0.1,0.4-0.1,0.8v6.5h0.6c0.6,0,1-0.1,1.2-0.4c0.4-0.3,0.6-0.8,0.7-1.4h0.2v2.3H393z"
   id="path167" />
				<path
   d="M388.1,486.4h3l0.4-0.8c0.1-0.3,0.2-0.5,0.2-0.7c0-0.2-0.1-0.4-0.3-0.5c-0.1-0.1-0.4-0.1-0.8-0.1V484h2.8v0.2      c-0.3,0-0.6,0.2-0.8,0.4c-0.2,0.2-0.4,0.6-0.7,1.3l-3,6.8h-0.1l-3.1-6.9c-0.3-0.7-0.5-1.1-0.7-1.2c-0.1-0.1-0.3-0.2-0.6-0.2V484      h4.1v0.2h-0.2c-0.3,0-0.6,0-0.7,0.1c-0.1,0.1-0.1,0.2-0.1,0.3c0,0.1,0,0.2,0,0.2c0,0,0.1,0.2,0.2,0.5L388.1,486.4z M388.4,486.9      l1.3,2.9l1.3-2.9H388.4z"
   id="path169" />
				<path
   d="M376.1,487l0.3-3h7.5v0.2h-0.3c-0.2,0-0.4,0-0.6,0.1c-0.1,0.1-0.2,0.2-0.2,0.3c0,0.1-0.1,0.4-0.1,0.8v5.6      c0,0.4,0,0.7,0.1,0.8s0.1,0.2,0.3,0.3c0.1,0.1,0.3,0.1,0.6,0.1h0.3v0.2h-4.5v-0.2h0.4c0.2,0,0.4,0,0.6-0.1      c0.1-0.1,0.2-0.2,0.3-0.3c0-0.1,0.1-0.4,0.1-0.8v-5.4c0-0.4,0-0.7-0.1-0.8c0-0.1-0.1-0.2-0.3-0.3c-0.1,0-0.4-0.1-0.8-0.1h-0.7      c-0.5,0-0.8,0.1-1.1,0.2c-0.3,0.2-0.6,0.4-0.8,0.8s-0.4,0.8-0.6,1.5H376.1z"
   id="path171" />
				<path
   d="M369.7,492.7l-0.1-2.8h0.3c0.1,0.7,0.4,1.3,0.9,1.7c0.5,0.4,1,0.6,1.5,0.6c0.4,0,0.8-0.1,1-0.3c0.2-0.2,0.4-0.5,0.4-0.8      c0-0.2,0-0.4-0.1-0.5c-0.1-0.2-0.3-0.4-0.6-0.6c-0.2-0.1-0.6-0.4-1.4-0.7c-1-0.5-1.7-0.9-2-1.4c-0.3-0.4-0.5-0.9-0.5-1.5      c0-0.7,0.3-1.3,0.8-1.8c0.6-0.5,1.3-0.8,2.1-0.8c0.3,0,0.5,0,0.8,0.1c0.2,0.1,0.5,0.2,0.9,0.3c0.2,0.1,0.4,0.1,0.5,0.1      c0.1,0,0.2,0,0.3-0.1c0.1-0.1,0.2-0.2,0.3-0.4h0.2v3.2h-0.2c-0.2-0.9-0.5-1.6-1.1-2.1c-0.5-0.5-1.1-0.7-1.7-0.7      c-0.5,0-0.8,0.1-1.1,0.4c-0.3,0.3-0.4,0.6-0.4,0.9c0,0.2,0.1,0.4,0.2,0.6c0.1,0.2,0.3,0.4,0.5,0.5c0.2,0.2,0.6,0.4,1.1,0.7      c0.8,0.4,1.3,0.7,1.7,1s0.6,0.6,0.8,0.9s0.3,0.7,0.3,1.1c0,0.7-0.2,1.2-0.7,1.7c-0.5,0.5-1.1,0.7-1.9,0.7c-0.3,0-0.5,0-0.8-0.1      c-0.2-0.1-0.4-0.1-0.7-0.3s-0.5-0.2-0.6-0.2c-0.1,0-0.2,0-0.3,0.1c-0.1,0.1-0.1,0.2-0.2,0.5H369.7z"
   id="path173" />
			</g>
		</g>
		<g
   id="g187">
			<g
   id="g185">
				<path
   d="M462.1,492.5v-2.3h0.2c0.1,0.5,0.3,0.9,0.4,1.1c0.2,0.2,0.4,0.4,0.7,0.6c0.2,0.1,0.4,0.1,0.8,0.1h0.6v-6.5      c0-0.4,0-0.7-0.1-0.8c0-0.1-0.1-0.2-0.3-0.3c-0.1-0.1-0.3-0.1-0.6-0.1h-0.3V484h4.4v0.2h-0.3c-0.2,0-0.4,0-0.6,0.1      c-0.1,0.1-0.2,0.2-0.3,0.3c0,0.1-0.1,0.4-0.1,0.8v6.5h0.6c0.6,0,1-0.1,1.2-0.4c0.4-0.3,0.6-0.8,0.7-1.4h0.2v2.3H462.1z"
   id="path179" />
				<path
   d="M458.2,488.1v-2.6c0-0.4,0-0.7-0.1-0.8c0-0.1-0.1-0.2-0.3-0.3c-0.1-0.1-0.3-0.1-0.6-0.1H457V484h4.4v0.2h-0.3      c-0.2,0-0.4,0-0.6,0.1c-0.1,0.1-0.2,0.2-0.2,0.3c0,0.1-0.1,0.4-0.1,0.8v5.6c0,0.4,0,0.7,0.1,0.8s0.1,0.2,0.3,0.3      c0.1,0.1,0.3,0.1,0.6,0.1h0.3v0.2H457v-0.2h0.3c0.2,0,0.4,0,0.6-0.1c0.1-0.1,0.2-0.2,0.3-0.3c0-0.1,0.1-0.4,0.1-0.8v-2.4h-3v2.4      c0,0.4,0,0.7,0.1,0.8s0.1,0.2,0.3,0.3c0.1,0.1,0.3,0.1,0.6,0.1h0.3v0.2h-4.4v-0.2h0.3c0.2,0,0.4,0,0.6-0.1      c0.1-0.1,0.2-0.2,0.3-0.3c0-0.1,0.1-0.4,0.1-0.8v-5.6c0-0.4,0-0.7-0.1-0.8c0-0.1-0.1-0.2-0.3-0.3c-0.1-0.1-0.3-0.1-0.6-0.1h-0.3      V484h4.4v0.2h-0.3c-0.2,0-0.4,0-0.6,0.1c-0.1,0.1-0.2,0.2-0.3,0.3c0,0.1-0.1,0.4-0.1,0.8v2.6H458.2z"
   id="path181" />
				<path
   d="M448.2,492v-3.4H448c-0.5,0-0.9,0.2-1.2,0.5c-0.2,0.3-0.4,0.8-0.5,1.5h-0.2v-4.4h0.2c0,0.5,0.2,0.9,0.3,1.2      c0.2,0.3,0.3,0.5,0.6,0.6c0.2,0.1,0.5,0.2,0.9,0.2v-2.4c0-0.5,0-0.8-0.1-0.9c0-0.1-0.1-0.2-0.2-0.3c-0.1-0.1-0.3-0.1-0.5-0.1      h-0.5c-0.8,0-1.4,0.2-1.9,0.5s-0.8,0.9-1,1.7h-0.2l0.4-2.7h7.3v0.2h-0.3c-0.2,0-0.4,0-0.6,0.1c-0.1,0.1-0.2,0.2-0.2,0.3      c0,0.1-0.1,0.4-0.1,0.8v5.6c0,0.4,0,0.6,0,0.7c0,0.1,0.1,0.3,0.2,0.3c0.2,0.1,0.4,0.2,0.6,0.2h0.3v0.2h-7.1V490h0.2      c0.1,0.6,0.3,1.1,0.5,1.3s0.5,0.5,0.9,0.6c0.2,0.1,0.7,0.1,1.3,0.1H448.2z"
   id="path183" />
			</g>
		</g>
		<g
   id="g193">
			<g
   id="g191">
				<path
   d="M431.2,496.8c-2,0.1-3.7-0.5-4.9-1.8c-1.3-1.2-1.9-2.8-1.9-4.7c0-1.6,0.5-3,1.4-4.2c1.2-1.6,3-2.4,5.3-2.4      c2.3,0,4,0.8,5.3,2.3c1,1.2,1.5,2.7,1.5,4.3c0,1.9-0.6,3.4-1.9,4.7S433,496.9,431.2,496.8z M431.1,496.2c1.2,0,2-0.6,2.6-1.8      c0.5-1,0.7-2.4,0.7-4.2c0-2.2-0.4-3.8-1.1-4.8c-0.5-0.7-1.3-1.1-2.2-1.1c-0.6,0-1.2,0.2-1.6,0.5c-0.5,0.4-1,1-1.3,1.9      s-0.5,2-0.5,3.4c0,1.7,0.2,2.9,0.5,3.8c0.3,0.8,0.7,1.4,1.2,1.8C429.9,496,430.4,496.2,431.1,496.2z"
   id="path189" />
			</g>
		</g>
	</g>
</g>
<g
   id="Layer_5"
   class="st3">
	<g
   class="st4"
   id="g204">
		<rect
   x="299.8"
   y="614.4"
   class="st9"
   width="240"
   height="59.2"
   id="rect198" />
		<text
   transform="matrix(1 0 0 1 388.209 623.0349)"
   class="st5 st10"
   id="text200">NKTL   JK</text>
		<line
   class="st11"
   x1="429.5"
   y1="614.9"
   x2="429.5"
   y2="622.9"
   id="line202" />
	</g>
	<g
   class="st4"
   id="g212">
		<rect
   x="299.8"
   y="433.3"
   class="st9"
   width="240"
   height="59.2"
   id="rect206" />
		<text
   transform="matrix(-1 0 0 -1 451.4131 483.959)"
   class="st5 st10"
   id="text208">NKTL   JK</text>
		<line
   class="st11"
   x1="410.1"
   y1="492.1"
   x2="410.1"
   y2="484.1"
   id="line210" />
	</g>
</g>
</svg>
