<?xml version="1.0" encoding="UTF-8" standalone="no"?>
<!-- Generator: Adobe Illustrator 25.2.3, SVG Export Plug-In . SVG Version: 6.00 Build 0)  -->

<svg
   version="1.1"
   x="0px"
   y="0px"
   viewBox="0 0 918 594"
   xml:space="preserve"
   id="svg201"
   sodipodi:docname="TheOrbitals_v2-35mm-Front-ink.svg"
   inkscape:version="1.1 (c68e22c387, 2021-05-23)"
   width="1224"
   height="792"
   xmlns:inkscape="http://www.inkscape.org/namespaces/inkscape"
   xmlns:sodipodi="http://sodipodi.sourceforge.net/DTD/sodipodi-0.dtd"
   xmlns="http://www.w3.org/2000/svg"
   xmlns:svg="http://www.w3.org/2000/svg"><defs
   id="defs205">
	
	
	
	
	
	
	
	
	
	
	
</defs><sodipodi:namedview
   id="namedview203"
   pagecolor="#ffffff"
   bordercolor="#666666"
   borderopacity="1.0"
   inkscape:pageshadow="2"
   inkscape:pageopacity="0.0"
   inkscape:pagecheckerboard="0"
   showgrid="false"
   inkscape:document-units="mm"
   inkscape:zoom="1.008667"
   inkscape:cx="622.10817"
   inkscape:cy="307.83201"
   inkscape:window-width="2560"
   inkscape:window-height="1377"
   inkscape:window-x="-8"
   inkscape:window-y="-8"
   inkscape:window-maximized="1"
   inkscape:current-layer="svg201" />
<style
   type="text/css"
   id="style2">
	.st0{fill:none;stroke:#000000;stroke-width:0.5;stroke-linecap:round;stroke-linejoin:round;}
	.st1{fill:none;stroke:#000000;stroke-width:0.25;stroke-linejoin:round;stroke-dasharray:3,1.5;}
	.st2{fill:none;stroke:#C80000;stroke-linecap:round;stroke-linejoin:round;}
	.st3{display:none;}
	.st4{display:inline;}
	.st5{font-family:'TimesNewRomanPS-BoldMT';}
	.st6{font-size:15.9px;}
	.st7{font-size:19.1px;}
	.st8{font-size:12.8px;}
</style>
<g
   id="g12"
   style="stroke:#000000;stroke-opacity:1"
   transform="translate(-110.87018,-454.1)">
		<path
   class="st0"
   d="m 469.5,545.9 c 145.5,-34.5 149.5,-36 162.9,-36 20.4,0 31.4,7.1 39.9,25.6"
   id="path4"
   style="stroke:#000000;stroke-opacity:1" />
		<path
   class="st0"
   d="m 672.3,572.2 c -8.5,18.5 -19.5,25.5 -39.9,25.5 -13.4,0 -17.5,-1.5 -162.9,-36"
   id="path6"
   style="stroke:#000000;stroke-opacity:1" />
		<path
   class="st0"
   d="m 167.1,572.2 c 8.5,18.5 19.5,25.5 39.9,25.5 13.4,0 18,-1.5 163.4,-36"
   id="path8"
   style="stroke:#000000;stroke-opacity:1" />
		<path
   class="st0"
   d="m 370.4,545.9 c -145.5,-34.5 -150,-36 -163.4,-36 -20.4,0 -31.4,7.1 -39.9,25.6"
   id="path10"
   style="stroke:#000000;stroke-opacity:1" />
	</g><path
   class="st0"
   d="m 261.82982,114.2 c -127.8,59.4 -145.7,63.5 -165.7,63.5 -36,0 -67.3,-24.7 -75.8,-59.6"
   id="path14"
   style="stroke:#000000;stroke-opacity:1" /><path
   class="st0"
   d="m 261.82982,85.2 c -127.8,-59.4 -145.7,-63.5 -165.7,-63.5 -36,0 -67.3,24.7 -75.8,59.6"
   id="path16"
   style="stroke:#000000;stroke-opacity:1" /><path
   class="st0"
   d="m 356.22982,114.2 c 127.8,59.4 145.2,63.4 165.3,63.4 36,0 67.3,-24.7 75.8,-59.6"
   id="path18"
   style="stroke:#000000;stroke-opacity:1" /><path
   class="st0"
   d="m 356.22982,85.2 c 127.8,-59.4 145.2,-63.4 165.3,-63.4 36,0 67.3,24.7 75.8,59.6"
   id="path20"
   style="stroke:#000000;stroke-opacity:1" /><line
   class="st0"
   x1="521.52985"
   y1="177.69998"
   x2="96.329819"
   y2="177.69998"
   id="line22"
   style="stroke:#000000;stroke-opacity:1" /><line
   class="st0"
   x1="96.329819"
   y1="21.699987"
   x2="521.52985"
   y2="21.699987"
   id="line24"
   style="stroke:#000000;stroke-opacity:1;stroke-width:0.50000002;stroke-miterlimit:4;stroke-dasharray:none" /><g
   id="g34"
   style="stroke:#000000;stroke-opacity:1;stroke-width:0.50000002;stroke-miterlimit:4;stroke-dasharray:2.00000006,2.00000006;stroke-dashoffset:0"
   transform="translate(-110.87018,-454.1)">
		<path
   class="st1"
   d="M 371.1,543.5 C 232.4,499.6 222.8,497.2 207,497.2 c -29.4,0 -44.1,10.5 -53.7,38.4"
   id="path26"
   style="stroke:#000000;stroke-opacity:1;stroke-width:0.50000002;stroke-miterlimit:4;stroke-dasharray:2.00000006,2.00000006;stroke-dashoffset:0" />
		<path
   class="st1"
   d="m 468.8,543.5 c 138.7,-43.9 147.8,-46.3 163.6,-46.3 29.4,0 44.1,10.5 53.7,38.4"
   id="path28"
   style="stroke:#000000;stroke-opacity:1;stroke-width:0.50000002;stroke-miterlimit:4;stroke-dasharray:2.00000006,2.00000006;stroke-dashoffset:0" />
		<path
   class="st1"
   d="m 153.3,572.2 c 9.5,27.8 24.2,38.3 53.6,38.3 15.8,0 25.4,-2.5 164.1,-46.3"
   id="path30"
   style="stroke:#000000;stroke-opacity:1;stroke-width:0.50000002;stroke-miterlimit:4;stroke-dasharray:2.00000006,2.00000006;stroke-dashoffset:0" />
		<path
   class="st1"
   d="m 686,572.2 c -9.5,27.8 -24.2,38.3 -53.6,38.3 -15.8,0 -25,-2.5 -163.6,-46.3"
   id="path32"
   style="stroke:#000000;stroke-opacity:1;stroke-width:0.50000002;stroke-miterlimit:4;stroke-dasharray:2.00000006,2.00000006;stroke-dashoffset:0" />
	</g><g
   id="g44"
   style="stroke:#000000;stroke-opacity:1;stroke-width:0.50000002;stroke-miterlimit:4;stroke-dasharray:2.00000006,2.00000006;stroke-dashoffset:0"
   transform="translate(-110.87018,-454.1)">
		<path
   class="st1"
   d="m 207,585 c 11.1,0 10.8,-0.8 162.9,-25.7"
   id="path36"
   style="stroke:#000000;stroke-opacity:1;stroke-width:0.50000002;stroke-miterlimit:4;stroke-dasharray:2.00000006,2.00000006;stroke-dashoffset:0" />
		<path
   class="st1"
   d="M 369.9,548.3 C 217.8,523.4 218.1,522.6 207,522.6"
   id="path38"
   style="stroke:#000000;stroke-opacity:1;stroke-width:0.50000002;stroke-miterlimit:4;stroke-dasharray:2.00000006,2.00000006;stroke-dashoffset:0" />
		<path
   class="st1"
   d="M 469.9,548.3 C 622,523.4 621.2,522.6 632.4,522.6"
   id="path40"
   style="stroke:#000000;stroke-opacity:1;stroke-width:0.50000002;stroke-miterlimit:4;stroke-dasharray:2.00000006,2.00000006;stroke-dashoffset:0" />
		<path
   class="st1"
   d="m 632.4,585 c -11.1,0 -10.3,-0.8 -162.5,-25.7"
   id="path42"
   style="stroke:#000000;stroke-opacity:1;stroke-width:0.50000002;stroke-miterlimit:4;stroke-dasharray:2.00000006,2.00000006;stroke-dashoffset:0" />
	</g><ellipse
   class="st1"
   cx="308.92981"
   cy="99.699989"
   rx="49.599998"
   ry="78"
   id="ellipse46"
   style="stroke:#000000;stroke-opacity:1;stroke-width:0.50000002;stroke-miterlimit:4;stroke-dasharray:2.00000006,2.00000006;stroke-dashoffset:0" /><ellipse
   class="st1"
   cx="308.92981"
   cy="99.199989"
   rx="49.599998"
   ry="59.5"
   id="ellipse48"
   style="stroke:#000000;stroke-opacity:1;stroke-width:0.57999998;stroke-miterlimit:4;stroke-dasharray:2.31999993,2.31999993;stroke-dashoffset:0" />
<g
   id="Layer_01"
   transform="translate(-110.87018,-454.1)">
	<path
   class="st2"
   d="m 207.2,653 c -44.1,0 -82.8,-29.3 -94.7,-71.7 -1.7,-5.9 0.6,-9.1 6.8,-9.1 19.8,0 39.6,0 59.4,0 2.3,0 3.8,0.7 5.3,2.4 19.1,21.4 54.5,7.8 54.4,-20.8 0,-28.7 -35.5,-42.1 -54.5,-20.7 -1.5,1.7 -3,2.4 -5.3,2.4 -20.1,0 -40.3,0 -60.4,0 -5.9,-0.4 -7.9,-3.4 -6.3,-9 12.2,-42.6 51.1,-71.9 95.4,-71.9 70.9,0 141.7,0 212.6,0 70.9,0 141.7,0 212.6,0 44.3,0 83.2,29.3 95.4,71.9 1.6,5.7 -0.4,8.6 -6.3,9 -20.1,0 -40.3,0 -60.4,0 -2.3,0 -3.8,-0.7 -5.3,-2.4 -19,-21.4 -54.4,-8 -54.5,20.7 -0.1,28.7 35.3,42.2 54.4,20.8 1.5,-1.7 3,-2.4 5.3,-2.4 19.8,0 39.6,0 59.4,0 6.2,0 8.5,3.1 6.8,9.1 -11.9,42.4 -50.6,71.7 -94.7,71.7 -70.9,0 -141.7,0 -212.6,0 -70.9,0 -141.9,0 -212.8,0 z"
   id="path51" />
	<path
   class="st2"
   d="m 207.2,653 c -44.1,0 -82.8,-29.3 -94.7,-71.7 -1.7,-5.9 0.6,-9.1 6.8,-9.1 19.8,0 39.6,0 59.4,0 2.3,0 3.8,0.7 5.3,2.4 19.1,21.4 54.5,7.8 54.4,-20.8 0,-28.7 -35.5,-42.1 -54.5,-20.7 -1.5,1.7 -3,2.4 -5.3,2.4 -20.1,0 -40.3,0 -60.4,0 -5.9,-0.4 -7.9,-3.4 -6.3,-9 12.2,-42.6 51.1,-71.9 95.4,-71.9 70.9,0 141.7,0 212.6,0 70.9,0 141.7,0 212.6,0 44.3,0 83.2,29.3 95.4,71.9 1.6,5.7 -0.4,8.6 -6.3,9 -20.1,0 -40.3,0 -60.4,0 -2.3,0 -3.8,-0.7 -5.3,-2.4 -19,-21.4 -54.4,-8 -54.5,20.7 -0.1,28.7 35.3,42.2 54.4,20.8 1.5,-1.7 3,-2.4 5.3,-2.4 19.8,0 39.6,0 59.4,0 6.2,0 8.5,3.1 6.8,9.1 -11.9,42.4 -50.6,71.7 -94.7,71.7 -70.9,0 -141.7,0 -212.6,0 -70.9,0 -141.9,0 -212.8,0 z"
   id="path53" />
	<circle
   class="st2"
   cx="419.79999"
   cy="553.79999"
   r="49.599998"
   id="circle55" />
</g>
<g
   id="Layer_02"
   class="st3">
	<g
   class="st4"
   id="g60">
		<text
   transform="rotate(-90,409.41555,148.79735)"
   class="st5 st6"
   id="text58">P</text>
	</g>
	<g
   class="st4"
   id="g64">
		<text
   transform="rotate(-90,459.32055,98.89235)"
   class="st5 st6"
   id="text62">S</text>
	</g>
	<g
   class="st4"
   id="g68">
		<text
   transform="rotate(-90,522.84985,34.85765)"
   class="st5 st6"
   id="text66">S</text>
	</g>
	<g
   class="st4"
   id="g72">
		<text
   transform="rotate(-90,573.92285,-15.70995)"
   class="st5 st6"
   id="text70">P</text>
	</g>
	<g
   class="st4"
   id="g86">
		<g
   id="g76">
			<text
   transform="translate(400.7275,616.252)"
   class="st5 st7"
   id="text74">O</text>
		</g>
		<g
   id="g80">
			<text
   transform="translate(369.0869,612)"
   class="st5 st8"
   id="text78">THE</text>
		</g>
		<g
   id="g84">
			<text
   transform="translate(415.4541,612)"
   class="st5 st8"
   id="text82">RBITALS</text>
		</g>
	</g>
	<g
   class="st4"
   id="g100">
		<g
   id="g90">
			<text
   transform="rotate(180,211.91115,247.31785)"
   class="st5 st8"
   id="text88">RBITALS</text>
		</g>
		<g
   id="g94">
			<text
   transform="rotate(180,235.09475,247.31785)"
   class="st5 st8"
   id="text92">THE</text>
		</g>
		<g
   id="g98">
			<text
   transform="rotate(180,219.2744,247.31785)"
   class="st5 st7"
   id="text96">O</text>
		</g>
	</g>
</g>
<g
   id="Layer_4"
   transform="translate(-110.87018,-454.1)">
	<g
   id="g107">
		<g
   id="g105">
			<path
   d="m 255.9,553.9 h 2.9 c 0.6,0 0.9,0 1.1,-0.1 0.2,-0.1 0.3,-0.2 0.4,-0.4 0.1,-0.2 0.1,-0.5 0.1,-1 h 0.3 v 5.3 h -0.3 c 0,-0.5 0,-0.8 -0.1,-1 -0.1,-0.2 -0.2,-0.3 -0.4,-0.4 -0.2,-0.1 -0.5,-0.1 -1.1,-0.1 H 252 c -0.6,0 -0.9,0 -1.1,0.1 -0.2,0.1 -0.3,0.2 -0.4,0.4 -0.1,0.2 -0.1,0.5 -0.1,1 h -0.3 v -4.6 c 0,-1.5 0.3,-2.6 0.8,-3.3 0.5,-0.7 1.2,-1 2,-1 0.7,0 1.3,0.2 1.8,0.6 0.5,0.4 0.8,1 1,1.8 0.1,0.7 0.2,1.5 0.2,2.7 z m -5.2,0 h 4.5 c 0,-0.2 0,-0.3 0,-0.4 0,-0.6 -0.2,-1.1 -0.6,-1.5 -0.4,-0.3 -1,-0.5 -1.7,-0.5 -0.8,0 -1.4,0.2 -1.7,0.5 -0.4,0.3 -0.5,0.9 -0.5,1.5 z"
   id="path103" />
		</g>
	</g>
	<g
   id="g113">
		<g
   id="g111">
			<path
   d="m 349.7,550.7 3.5,-0.1 v 0.3 c -0.9,0.2 -1.6,0.5 -2.1,1.1 -0.5,0.6 -0.8,1.2 -0.8,1.9 0,0.5 0.1,0.9 0.4,1.3 0.3,0.3 0.6,0.5 1,0.5 0.2,0 0.4,-0.1 0.6,-0.2 0.2,-0.1 0.5,-0.4 0.7,-0.7 0.2,-0.2 0.5,-0.8 0.9,-1.7 0.6,-1.2 1.2,-2.1 1.7,-2.5 0.5,-0.4 1.2,-0.6 1.8,-0.6 0.9,0 1.6,0.3 2.3,1 0.6,0.7 1,1.6 1,2.6 0,0.3 0,0.6 -0.1,0.9 -0.1,0.3 -0.2,0.7 -0.4,1.1 -0.1,0.2 -0.2,0.5 -0.2,0.6 0,0.1 0.1,0.3 0.2,0.4 0.1,0.2 0.3,0.3 0.5,0.4 v 0.3 h -4 V 557 c 1.1,-0.2 2,-0.7 2.6,-1.3 0.6,-0.6 0.9,-1.3 0.9,-2.1 0,-0.6 -0.2,-1 -0.5,-1.4 -0.3,-0.4 -0.7,-0.5 -1.1,-0.5 -0.2,0 -0.5,0.1 -0.7,0.2 -0.2,0.1 -0.5,0.3 -0.7,0.6 -0.2,0.3 -0.5,0.7 -0.8,1.4 -0.5,1 -0.9,1.6 -1.2,2.1 -0.3,0.4 -0.7,0.7 -1.1,1 -0.4,0.2 -0.9,0.3 -1.4,0.3 -0.8,0 -1.6,-0.3 -2.1,-0.9 -0.6,-0.6 -0.9,-1.4 -0.9,-2.3 0,-0.3 0,-0.7 0.1,-1 0.1,-0.2 0.2,-0.5 0.3,-0.9 0.2,-0.3 0.3,-0.6 0.3,-0.7 0,-0.1 0,-0.2 -0.1,-0.3 -0.1,-0.1 -0.3,-0.1 -0.6,-0.2 z"
   id="path109" />
		</g>
	</g>
	<g
   id="g119">
		<g
   id="g117">
			<path
   d="m 477.2,550.2 3.5,-0.1 v 0.3 c -0.9,0.2 -1.6,0.5 -2.1,1.1 -0.5,0.6 -0.8,1.2 -0.8,1.9 0,0.5 0.1,0.9 0.4,1.3 0.3,0.3 0.6,0.5 1,0.5 0.2,0 0.4,-0.1 0.6,-0.2 0.2,-0.1 0.5,-0.4 0.7,-0.7 0.2,-0.2 0.5,-0.8 0.9,-1.7 0.6,-1.2 1.2,-2.1 1.7,-2.5 0.5,-0.4 1.2,-0.6 1.8,-0.6 0.9,0 1.6,0.3 2.3,1 0.6,0.7 1,1.6 1,2.6 0,0.3 0,0.6 -0.1,0.9 -0.1,0.3 -0.2,0.7 -0.4,1.1 -0.1,0.2 -0.2,0.5 -0.2,0.6 0,0.1 0.1,0.3 0.2,0.4 0.1,0.2 0.3,0.3 0.5,0.4 v 0.3 h -4 v -0.3 c 1.1,-0.2 2,-0.7 2.6,-1.3 0.6,-0.6 0.9,-1.3 0.9,-2.1 0,-0.6 -0.2,-1 -0.5,-1.4 -0.3,-0.4 -0.7,-0.5 -1.1,-0.5 -0.2,0 -0.5,0.1 -0.7,0.2 -0.2,0.1 -0.5,0.3 -0.7,0.6 -0.2,0.3 -0.5,0.7 -0.8,1.4 -0.5,1 -0.9,1.6 -1.2,2.1 -0.3,0.4 -0.7,0.7 -1.1,1 -0.4,0.2 -0.9,0.3 -1.4,0.3 -0.8,0 -1.6,-0.3 -2.1,-0.9 -0.6,-0.6 -0.9,-1.4 -0.9,-2.3 0,-0.3 0,-0.7 0.1,-1 0.1,-0.2 0.2,-0.5 0.3,-0.9 0.2,-0.3 0.3,-0.6 0.3,-0.7 0,-0.1 0,-0.2 -0.1,-0.3 -0.1,-0.1 -0.3,-0.1 -0.6,-0.2 z"
   id="path115" />
		</g>
	</g>
	<g
   id="g125">
		<g
   id="g123">
			<path
   d="m 584.9,553.9 h 2.9 c 0.6,0 0.9,0 1.1,-0.1 0.2,-0.1 0.3,-0.2 0.4,-0.4 0.1,-0.2 0.1,-0.5 0.1,-1 h 0.3 v 5.3 h -0.3 c 0,-0.5 0,-0.8 -0.1,-1 -0.1,-0.2 -0.2,-0.3 -0.4,-0.4 -0.2,-0.1 -0.5,-0.1 -1.1,-0.1 H 581 c -0.6,0 -0.9,0 -1.1,0.1 -0.2,0.1 -0.3,0.2 -0.4,0.4 -0.1,0.2 -0.1,0.5 -0.1,1 h -0.3 v -4.6 c 0,-1.5 0.3,-2.6 0.8,-3.3 0.5,-0.7 1.2,-1 2,-1 0.7,0 1.3,0.2 1.8,0.6 0.5,0.4 0.8,1 1,1.8 0.1,0.7 0.2,1.5 0.2,2.7 z m -5.2,0 h 4.5 c 0,-0.2 0,-0.3 0,-0.4 0,-0.6 -0.2,-1.1 -0.6,-1.5 -0.4,-0.3 -1,-0.5 -1.7,-0.5 -0.8,0 -1.4,0.2 -1.7,0.5 -0.4,0.3 -0.5,0.9 -0.5,1.5 z"
   id="path121" />
		</g>
	</g>
	<g
   id="g161">
		<g
   id="g131">
			<g
   id="g129">
				<path
   d="m 408.1,611 c 2,-0.1 3.7,0.5 4.9,1.8 1.3,1.2 1.9,2.8 1.9,4.7 0,1.6 -0.5,3 -1.4,4.2 -1.2,1.6 -3,2.4 -5.3,2.4 -2.3,0 -4,-0.8 -5.3,-2.3 -1,-1.2 -1.5,-2.7 -1.5,-4.3 0,-1.9 0.6,-3.4 1.9,-4.7 1.3,-1.3 2.9,-1.9 4.8,-1.8 z m 0.1,0.6 c -1.2,0 -2,0.6 -2.6,1.8 -0.5,1 -0.7,2.4 -0.7,4.2 0,2.2 0.4,3.8 1.1,4.8 0.5,0.7 1.3,1.1 2.2,1.1 0.6,0 1.2,-0.2 1.6,-0.5 0.5,-0.4 1,-1 1.3,-1.9 0.3,-0.9 0.5,-2 0.5,-3.4 0,-1.7 -0.2,-2.9 -0.5,-3.8 -0.3,-0.8 -0.7,-1.4 -1.2,-1.8 -0.5,-0.4 -1.1,-0.5 -1.7,-0.5 z"
   id="path127" />
			</g>
		</g>
		<g
   id="g141">
			<g
   id="g139">
				<path
   d="m 377.2,615.2 v 2.3 H 377 c -0.1,-0.5 -0.3,-0.9 -0.4,-1.1 -0.2,-0.2 -0.4,-0.4 -0.7,-0.6 -0.2,-0.1 -0.4,-0.1 -0.8,-0.1 h -0.6 v 6.5 c 0,0.4 0,0.7 0.1,0.8 0,0.1 0.1,0.2 0.3,0.3 0.1,0.1 0.3,0.1 0.6,0.1 h 0.3 v 0.2 h -4.4 v -0.2 h 0.3 c 0.2,0 0.4,0 0.6,-0.1 0.1,-0.1 0.2,-0.2 0.3,-0.3 0,-0.1 0.1,-0.4 0.1,-0.8 v -6.5 h -0.6 c -0.6,0 -1,0.1 -1.2,0.4 -0.4,0.3 -0.6,0.8 -0.7,1.4 H 370 v -2.3 z"
   id="path133" />
				<path
   d="m 381.1,619.6 v 2.6 c 0,0.4 0,0.7 0.1,0.8 0,0.1 0.1,0.2 0.3,0.3 0.1,0.1 0.3,0.1 0.6,0.1 h 0.3 v 0.2 H 378 v -0.2 h 0.3 c 0.2,0 0.4,0 0.6,-0.1 0.1,-0.1 0.2,-0.2 0.2,-0.3 0,-0.1 0.1,-0.4 0.1,-0.8 v -5.6 c 0,-0.4 0,-0.7 -0.1,-0.8 -0.1,-0.1 -0.1,-0.2 -0.3,-0.3 -0.1,-0.1 -0.3,-0.1 -0.6,-0.1 h -0.3 v -0.2 h 4.4 v 0.2 H 382 c -0.2,0 -0.4,0 -0.6,0.1 -0.1,0.1 -0.2,0.2 -0.3,0.3 0,0.1 -0.1,0.4 -0.1,0.8 v 2.4 h 3 v -2.4 c 0,-0.4 0,-0.7 -0.1,-0.8 -0.1,-0.1 -0.1,-0.2 -0.3,-0.3 -0.1,-0.1 -0.3,-0.1 -0.6,-0.1 h -0.3 v -0.2 h 4.4 v 0.2 h -0.3 c -0.2,0 -0.4,0 -0.6,0.1 -0.1,0.1 -0.2,0.2 -0.3,0.3 0,0.1 -0.1,0.4 -0.1,0.8 v 5.6 c 0,0.4 0,0.7 0.1,0.8 0,0.1 0.1,0.2 0.3,0.3 0.1,0.1 0.3,0.1 0.6,0.1 h 0.3 v 0.2 h -4.4 v -0.2 h 0.3 c 0.2,0 0.4,0 0.6,-0.1 0.1,-0.1 0.2,-0.2 0.3,-0.3 0,-0.1 0.1,-0.4 0.1,-0.8 v -2.6 z"
   id="path135" />
				<path
   d="m 391.1,615.7 v 3.4 h 0.2 c 0.5,0 0.9,-0.2 1.2,-0.5 0.2,-0.3 0.4,-0.8 0.5,-1.5 h 0.2 v 4.4 H 393 c 0,-0.5 -0.2,-0.9 -0.3,-1.2 -0.2,-0.3 -0.3,-0.5 -0.6,-0.6 -0.2,-0.1 -0.5,-0.2 -0.9,-0.2 v 2.4 c 0,0.5 0,0.8 0.1,0.9 0,0.1 0.1,0.2 0.2,0.3 0.1,0.1 0.3,0.1 0.5,0.1 h 0.5 c 0.8,0 1.4,-0.2 1.9,-0.5 0.5,-0.3 0.8,-0.9 1,-1.7 h 0.2 l -0.4,2.7 h -7.3 v -0.2 h 0.3 c 0.2,0 0.4,0 0.6,-0.1 0.1,-0.1 0.2,-0.2 0.2,-0.3 0,-0.1 0.1,-0.4 0.1,-0.8 v -5.6 c 0,-0.4 0,-0.6 0,-0.7 0,-0.1 -0.1,-0.3 -0.2,-0.3 -0.2,-0.1 -0.4,-0.2 -0.6,-0.2 H 388 v -0.2 h 7.1 v 2.5 h -0.2 c -0.1,-0.6 -0.3,-1.1 -0.5,-1.3 -0.2,-0.2 -0.5,-0.5 -0.9,-0.6 -0.2,-0.1 -0.7,-0.1 -1.3,-0.1 h -1.1 z"
   id="path137" />
			</g>
		</g>
		<g
   id="g159">
			<g
   id="g157">
				<path
   d="m 418.9,619.8 v 2.4 c 0,0.5 0,0.7 0.1,0.9 0.1,0.1 0.2,0.2 0.3,0.3 0.1,0.1 0.4,0.1 0.8,0.1 v 0.2 h -4.3 v -0.2 c 0.4,0 0.7,0 0.8,-0.1 0.1,-0.1 0.2,-0.2 0.3,-0.3 0.1,-0.1 0.1,-0.4 0.1,-0.9 v -5.5 c 0,-0.5 0,-0.7 -0.1,-0.9 -0.1,-0.2 -0.2,-0.2 -0.3,-0.3 -0.1,-0.1 -0.4,-0.1 -0.8,-0.1 v -0.2 h 3.9 c 1,0 1.8,0.1 2.2,0.2 0.5,0.1 0.9,0.4 1.2,0.8 0.3,0.4 0.5,0.8 0.5,1.3 0,0.6 -0.2,1.1 -0.7,1.6 -0.3,0.3 -0.7,0.5 -1.2,0.6 l 2,2.9 c 0.3,0.4 0.5,0.6 0.6,0.7 0.2,0.1 0.4,0.2 0.6,0.2 v 0.2 h -2.7 l -2.7,-3.9 z m 0,-4.1 v 3.7 h 0.4 c 0.6,0 1,-0.1 1.3,-0.2 0.3,-0.1 0.5,-0.3 0.7,-0.6 0.2,-0.3 0.2,-0.6 0.2,-1.1 0,-0.6 -0.2,-1.1 -0.5,-1.4 -0.3,-0.3 -0.8,-0.5 -1.5,-0.5 h -0.6 z"
   id="path143" />
				<path
   d="m 430.4,619.2 c 0.8,0.2 1.4,0.4 1.7,0.7 0.5,0.4 0.7,0.9 0.7,1.5 0,0.6 -0.3,1.2 -0.8,1.6 -0.6,0.5 -1.5,0.8 -2.7,0.8 H 425 v -0.2 c 0.4,0 0.7,0 0.8,-0.1 0.1,-0.1 0.2,-0.2 0.3,-0.3 0.1,-0.1 0.1,-0.4 0.1,-0.9 v -5.5 c 0,-0.5 0,-0.7 -0.1,-0.9 -0.1,-0.2 -0.2,-0.2 -0.3,-0.3 -0.1,-0.1 -0.4,-0.1 -0.8,-0.1 v -0.2 h 4.1 c 1,0 1.7,0.1 2.1,0.3 0.4,0.2 0.7,0.4 1,0.8 0.3,0.4 0.4,0.7 0.4,1.1 0,0.4 -0.1,0.8 -0.4,1.1 -0.5,0.2 -1.1,0.4 -1.8,0.6 z m -2.3,0.3 v 2.7 0.3 c 0,0.2 0.1,0.4 0.2,0.5 0.1,0.1 0.3,0.2 0.5,0.2 0.3,0 0.6,-0.1 0.9,-0.2 0.3,-0.1 0.5,-0.4 0.6,-0.6 0.1,-0.2 0.2,-0.6 0.2,-0.9 0,-0.4 -0.1,-0.8 -0.3,-1.1 -0.2,-0.3 -0.4,-0.5 -0.8,-0.7 -0.4,-0.2 -0.6,-0.2 -1.3,-0.2 z m 0,-0.5 c 0.6,0 1,-0.1 1.3,-0.2 0.3,-0.1 0.5,-0.3 0.6,-0.6 0.1,-0.3 0.2,-0.6 0.2,-0.9 0,-0.3 -0.1,-0.7 -0.2,-0.9 -0.1,-0.2 -0.4,-0.4 -0.6,-0.5 -0.3,-0.1 -0.7,-0.2 -1.3,-0.2 z"
   id="path145" />
				<path
   d="m 437.9,623.5 v 0.2 h -4.4 v -0.2 h 0.3 c 0.2,0 0.4,0 0.6,-0.1 0.1,-0.1 0.2,-0.2 0.2,-0.3 0,-0.1 0.1,-0.4 0.1,-0.8 v -5.6 c 0,-0.4 0,-0.7 -0.1,-0.8 -0.1,-0.1 -0.1,-0.2 -0.3,-0.3 -0.1,-0.1 -0.3,-0.1 -0.6,-0.1 h -0.3 v -0.2 h 4.4 v 0.2 h -0.3 c -0.2,0 -0.4,0 -0.6,0.1 -0.1,0.1 -0.2,0.2 -0.3,0.3 0,0.1 -0.1,0.4 -0.1,0.8 v 5.6 c 0,0.4 0,0.7 0.1,0.8 0,0.1 0.1,0.2 0.3,0.3 0.1,0.1 0.3,0.1 0.6,0.1 z"
   id="path147" />
				<path
   d="m 446.3,615.2 v 2.3 h -0.2 c -0.1,-0.5 -0.3,-0.9 -0.4,-1.1 -0.2,-0.2 -0.4,-0.4 -0.7,-0.6 -0.2,-0.1 -0.4,-0.1 -0.8,-0.1 h -0.6 v 6.5 c 0,0.4 0,0.7 0.1,0.8 0,0.1 0.1,0.2 0.3,0.3 0.1,0.1 0.3,0.1 0.6,0.1 h 0.3 v 0.2 h -4.4 v -0.2 h 0.3 c 0.2,0 0.4,0 0.6,-0.1 0.1,-0.1 0.2,-0.2 0.3,-0.3 0,-0.1 0.1,-0.4 0.1,-0.8 v -6.5 h -0.6 c -0.6,0 -1,0.1 -1.2,0.4 -0.4,0.3 -0.6,0.8 -0.7,1.4 h -0.2 v -2.3 z"
   id="path149" />
				<path
   d="m 451.1,621.3 h -3 l -0.4,0.8 c -0.1,0.3 -0.2,0.5 -0.2,0.7 0,0.2 0.1,0.4 0.3,0.5 0.1,0.1 0.4,0.1 0.8,0.1 v 0.2 h -2.8 v -0.2 c 0.3,0 0.6,-0.2 0.8,-0.4 0.2,-0.2 0.4,-0.6 0.7,-1.3 l 3,-6.8 h 0.1 l 3.1,6.9 c 0.3,0.7 0.5,1.1 0.7,1.2 0.1,0.1 0.3,0.2 0.6,0.2 v 0.2 h -4.1 v -0.2 h 0.2 c 0.3,0 0.6,0 0.7,-0.1 0.1,-0.1 0.1,-0.2 0.1,-0.3 0,-0.1 0,-0.2 0,-0.2 0,0 -0.1,-0.2 -0.2,-0.5 z m -0.2,-0.5 -1.3,-2.9 -1.3,2.9 z"
   id="path151" />
				<path
   d="m 463.1,620.7 -0.3,3 h -7.5 v -0.2 h 0.3 c 0.2,0 0.4,0 0.6,-0.1 0.1,-0.1 0.2,-0.2 0.2,-0.3 0,-0.1 0.1,-0.4 0.1,-0.8 v -5.6 c 0,-0.4 0,-0.7 -0.1,-0.8 -0.1,-0.1 -0.1,-0.2 -0.3,-0.3 -0.1,-0.1 -0.3,-0.1 -0.6,-0.1 h -0.3 v -0.2 h 4.5 v 0.2 h -0.4 c -0.2,0 -0.4,0 -0.6,0.1 -0.1,0.1 -0.2,0.2 -0.3,0.3 0,0.1 -0.1,0.4 -0.1,0.8 v 5.4 c 0,0.4 0,0.7 0.1,0.8 0,0.1 0.1,0.2 0.3,0.3 0.1,0 0.4,0.1 0.8,0.1 h 0.7 c 0.5,0 0.8,-0.1 1.1,-0.2 0.3,-0.2 0.6,-0.4 0.8,-0.8 0.2,-0.4 0.4,-0.8 0.6,-1.5 h 0.4 z"
   id="path153" />
				<path
   d="m 469.6,615 0.1,2.8 h -0.3 c -0.1,-0.7 -0.4,-1.3 -0.9,-1.7 -0.5,-0.4 -1,-0.6 -1.5,-0.6 -0.4,0 -0.8,0.1 -1,0.3 -0.2,0.2 -0.4,0.5 -0.4,0.8 0,0.2 0,0.4 0.1,0.5 0.1,0.2 0.3,0.4 0.6,0.6 0.2,0.1 0.6,0.4 1.4,0.7 1,0.5 1.7,0.9 2,1.4 0.3,0.4 0.5,0.9 0.5,1.5 0,0.7 -0.3,1.3 -0.8,1.8 -0.6,0.5 -1.3,0.8 -2.1,0.8 -0.3,0 -0.5,0 -0.8,-0.1 -0.2,-0.1 -0.5,-0.2 -0.9,-0.3 -0.2,-0.1 -0.4,-0.1 -0.5,-0.1 -0.1,0 -0.2,0 -0.3,0.1 -0.1,0.1 -0.2,0.2 -0.3,0.4 h -0.2 v -3.2 h 0.2 c 0.2,0.9 0.5,1.6 1.1,2.1 0.5,0.5 1.1,0.7 1.7,0.7 0.5,0 0.8,-0.1 1.1,-0.4 0.3,-0.3 0.4,-0.6 0.4,-0.9 0,-0.2 -0.1,-0.4 -0.2,-0.6 -0.1,-0.2 -0.3,-0.4 -0.5,-0.5 -0.2,-0.2 -0.6,-0.4 -1.1,-0.7 -0.8,-0.4 -1.3,-0.7 -1.7,-1 -0.4,-0.3 -0.6,-0.6 -0.8,-0.9 -0.2,-0.3 -0.3,-0.7 -0.3,-1.1 0,-0.7 0.2,-1.2 0.7,-1.7 0.5,-0.5 1.1,-0.7 1.9,-0.7 0.3,0 0.5,0 0.8,0.1 0.2,0.1 0.4,0.1 0.7,0.3 0.3,0.2 0.5,0.2 0.6,0.2 0.1,0 0.2,0 0.3,-0.1 0.1,-0.1 0.1,-0.2 0.2,-0.5 z"
   id="path155" />
			</g>
		</g>
	</g>
	<g
   id="g197">
		<g
   id="g179">
			<g
   id="g177">
				<path
   d="m 420.4,486.8 v -2.4 c 0,-0.5 0,-0.7 -0.1,-0.9 -0.1,-0.1 -0.2,-0.2 -0.3,-0.3 -0.1,-0.1 -0.4,-0.1 -0.8,-0.1 V 483 h 4.3 v 0.2 c -0.4,0 -0.7,0 -0.8,0.1 -0.1,0.1 -0.2,0.2 -0.3,0.3 -0.1,0.1 -0.1,0.4 -0.1,0.9 v 5.5 c 0,0.5 0,0.7 0.1,0.9 0.1,0.2 0.2,0.2 0.3,0.3 0.1,0.1 0.4,0.1 0.8,0.1 v 0.2 h -3.9 c -1,0 -1.8,-0.1 -2.2,-0.2 -0.5,-0.1 -0.9,-0.4 -1.2,-0.8 -0.3,-0.4 -0.5,-0.8 -0.5,-1.3 0,-0.6 0.2,-1.1 0.7,-1.6 0.3,-0.3 0.7,-0.5 1.2,-0.6 l -2,-2.9 c -0.3,-0.4 -0.5,-0.6 -0.6,-0.7 -0.2,-0.1 -0.4,-0.2 -0.6,-0.2 V 483 h 2.7 l 2.7,3.9 h 0.6 z m 0,4.2 v -3.7 H 420 c -0.6,0 -1,0.1 -1.3,0.2 -0.3,0.1 -0.5,0.3 -0.7,0.6 -0.2,0.3 -0.2,0.6 -0.2,1.1 0,0.6 0.2,1.1 0.5,1.4 0.3,0.3 0.8,0.5 1.5,0.5 h 0.6 z"
   id="path163" />
				<path
   d="m 408.9,487.5 c -0.8,-0.2 -1.4,-0.4 -1.7,-0.7 -0.5,-0.4 -0.7,-0.9 -0.7,-1.5 0,-0.6 0.3,-1.2 0.8,-1.6 0.6,-0.5 1.5,-0.8 2.7,-0.8 h 4.3 v 0.2 c -0.4,0 -0.7,0 -0.8,0.1 -0.1,0.1 -0.2,0.2 -0.3,0.3 -0.1,0.1 -0.1,0.4 -0.1,0.9 v 5.5 c 0,0.5 0,0.7 0.1,0.9 0.1,0.2 0.2,0.2 0.3,0.3 0.1,0.1 0.4,0.1 0.8,0.1 v 0.2 h -4.1 c -1,0 -1.7,-0.1 -2.1,-0.3 -0.4,-0.2 -0.7,-0.4 -1,-0.8 -0.3,-0.4 -0.4,-0.7 -0.4,-1.1 0,-0.4 0.1,-0.8 0.4,-1.1 0.5,-0.2 1,-0.4 1.8,-0.6 z m 2.3,-0.3 v -2.7 -0.3 c 0,-0.2 -0.1,-0.4 -0.2,-0.5 -0.1,-0.1 -0.3,-0.2 -0.5,-0.2 -0.3,0 -0.6,0.1 -0.9,0.2 -0.3,0.1 -0.5,0.4 -0.6,0.6 -0.1,0.2 -0.2,0.6 -0.2,0.9 0,0.4 0.1,0.8 0.3,1.1 0.2,0.3 0.4,0.5 0.8,0.7 0.4,0.2 0.6,0.2 1.3,0.2 z m 0,0.4 c -0.6,0 -1,0.1 -1.3,0.2 -0.3,0.1 -0.5,0.3 -0.6,0.6 -0.1,0.3 -0.2,0.6 -0.2,0.9 0,0.3 0.1,0.7 0.2,0.9 0.1,0.2 0.4,0.4 0.6,0.5 0.3,0.1 0.7,0.2 1.3,0.2 z"
   id="path165" />
				<path
   d="M 401.4,483.2 V 483 h 4.4 v 0.2 h -0.3 c -0.2,0 -0.4,0 -0.6,0.1 -0.1,0.1 -0.2,0.2 -0.2,0.3 0,0.1 -0.1,0.4 -0.1,0.8 v 5.6 c 0,0.4 0,0.7 0.1,0.8 0.1,0.1 0.1,0.2 0.3,0.3 0.1,0.1 0.3,0.1 0.6,0.1 h 0.3 v 0.2 h -4.4 v -0.2 h 0.3 c 0.2,0 0.4,0 0.6,-0.1 0.1,-0.1 0.2,-0.2 0.3,-0.3 0,-0.1 0.1,-0.4 0.1,-0.8 v -5.6 c 0,-0.4 0,-0.7 -0.1,-0.8 0,-0.1 -0.1,-0.2 -0.3,-0.3 -0.1,-0.1 -0.3,-0.1 -0.6,-0.1 z"
   id="path167" />
				<path
   d="m 393,491.5 v -2.3 h 0.2 c 0.1,0.5 0.3,0.9 0.4,1.1 0.2,0.2 0.4,0.4 0.7,0.6 0.2,0.1 0.4,0.1 0.8,0.1 h 0.6 v -6.5 c 0,-0.4 0,-0.7 -0.1,-0.8 0,-0.1 -0.1,-0.2 -0.3,-0.3 -0.1,-0.1 -0.3,-0.1 -0.6,-0.1 h -0.3 V 483 h 4.4 v 0.2 h -0.3 c -0.2,0 -0.4,0 -0.6,0.1 -0.1,0.1 -0.2,0.2 -0.3,0.3 0,0.1 -0.1,0.4 -0.1,0.8 v 6.5 h 0.6 c 0.6,0 1,-0.1 1.2,-0.4 0.4,-0.3 0.6,-0.8 0.7,-1.4 h 0.2 v 2.3 H 393 Z"
   id="path169" />
				<path
   d="m 388.1,485.4 h 3 l 0.4,-0.8 c 0.1,-0.3 0.2,-0.5 0.2,-0.7 0,-0.2 -0.1,-0.4 -0.3,-0.5 -0.1,-0.1 -0.4,-0.1 -0.8,-0.1 V 483 h 2.8 v 0.2 c -0.3,0 -0.6,0.2 -0.8,0.4 -0.2,0.2 -0.4,0.6 -0.7,1.3 l -3,6.8 h -0.1 l -3.1,-6.9 c -0.3,-0.7 -0.5,-1.1 -0.7,-1.2 -0.1,-0.1 -0.3,-0.2 -0.6,-0.2 V 483 h 4.1 v 0.2 h -0.2 c -0.3,0 -0.6,0 -0.7,0.1 -0.1,0.1 -0.1,0.2 -0.1,0.3 0,0.1 0,0.2 0,0.2 0,0 0.1,0.2 0.2,0.5 z m 0.3,0.5 1.3,2.9 1.3,-2.9 z"
   id="path171" />
				<path
   d="m 376.1,486 0.3,-3 h 7.5 v 0.2 h -0.3 c -0.2,0 -0.4,0 -0.6,0.1 -0.1,0.1 -0.2,0.2 -0.2,0.3 0,0.1 -0.1,0.4 -0.1,0.8 v 5.6 c 0,0.4 0,0.7 0.1,0.8 0.1,0.1 0.1,0.2 0.3,0.3 0.1,0.1 0.3,0.1 0.6,0.1 h 0.3 v 0.2 h -4.5 v -0.2 h 0.4 c 0.2,0 0.4,0 0.6,-0.1 0.1,-0.1 0.2,-0.2 0.3,-0.3 0,-0.1 0.1,-0.4 0.1,-0.8 v -5.4 c 0,-0.4 0,-0.7 -0.1,-0.8 0,-0.1 -0.1,-0.2 -0.3,-0.3 -0.1,0 -0.4,-0.1 -0.8,-0.1 H 379 c -0.5,0 -0.8,0.1 -1.1,0.2 -0.3,0.2 -0.6,0.4 -0.8,0.8 -0.2,0.4 -0.4,0.8 -0.6,1.5 h -0.4 z"
   id="path173" />
				<path
   d="m 369.7,491.7 -0.1,-2.8 h 0.3 c 0.1,0.7 0.4,1.3 0.9,1.7 0.5,0.4 1,0.6 1.5,0.6 0.4,0 0.8,-0.1 1,-0.3 0.2,-0.2 0.4,-0.5 0.4,-0.8 0,-0.2 0,-0.4 -0.1,-0.5 -0.1,-0.2 -0.3,-0.4 -0.6,-0.6 -0.2,-0.1 -0.6,-0.4 -1.4,-0.7 -1,-0.5 -1.7,-0.9 -2,-1.4 -0.3,-0.4 -0.5,-0.9 -0.5,-1.5 0,-0.7 0.3,-1.3 0.8,-1.8 0.6,-0.5 1.3,-0.8 2.1,-0.8 0.3,0 0.5,0 0.8,0.1 0.2,0.1 0.5,0.2 0.9,0.3 0.2,0.1 0.4,0.1 0.5,0.1 0.1,0 0.2,0 0.3,-0.1 0.1,-0.1 0.2,-0.2 0.3,-0.4 h 0.2 v 3.2 h -0.2 c -0.2,-0.9 -0.5,-1.6 -1.1,-2.1 -0.5,-0.5 -1.1,-0.7 -1.7,-0.7 -0.5,0 -0.8,0.1 -1.1,0.4 -0.3,0.3 -0.4,0.6 -0.4,0.9 0,0.2 0.1,0.4 0.2,0.6 0.1,0.2 0.3,0.4 0.5,0.5 0.2,0.2 0.6,0.4 1.1,0.7 0.8,0.4 1.3,0.7 1.7,1 0.4,0.3 0.6,0.6 0.8,0.9 0.2,0.3 0.3,0.7 0.3,1.1 0,0.7 -0.2,1.2 -0.7,1.7 -0.5,0.5 -1.1,0.7 -1.9,0.7 -0.3,0 -0.5,0 -0.8,-0.1 -0.2,-0.1 -0.4,-0.1 -0.7,-0.3 -0.3,-0.2 -0.5,-0.2 -0.6,-0.2 -0.1,0 -0.2,0 -0.3,0.1 -0.1,0.1 -0.1,0.2 -0.2,0.5 z"
   id="path175" />
			</g>
		</g>
		<g
   id="g189">
			<g
   id="g187">
				<path
   d="m 462.1,491.5 v -2.3 h 0.2 c 0.1,0.5 0.3,0.9 0.4,1.1 0.2,0.2 0.4,0.4 0.7,0.6 0.2,0.1 0.4,0.1 0.8,0.1 h 0.6 v -6.5 c 0,-0.4 0,-0.7 -0.1,-0.8 0,-0.1 -0.1,-0.2 -0.3,-0.3 -0.1,-0.1 -0.3,-0.1 -0.6,-0.1 h -0.3 V 483 h 4.4 v 0.2 h -0.3 c -0.2,0 -0.4,0 -0.6,0.1 -0.1,0.1 -0.2,0.2 -0.3,0.3 0,0.1 -0.1,0.4 -0.1,0.8 v 6.5 h 0.6 c 0.6,0 1,-0.1 1.2,-0.4 0.4,-0.3 0.6,-0.8 0.7,-1.4 h 0.2 v 2.3 h -7.2 z"
   id="path181" />
				<path
   d="m 458.2,487.1 v -2.6 c 0,-0.4 0,-0.7 -0.1,-0.8 0,-0.1 -0.1,-0.2 -0.3,-0.3 -0.1,-0.1 -0.3,-0.1 -0.6,-0.1 H 457 V 483 h 4.4 v 0.2 h -0.3 c -0.2,0 -0.4,0 -0.6,0.1 -0.1,0.1 -0.2,0.2 -0.2,0.3 0,0.1 -0.1,0.4 -0.1,0.8 v 5.6 c 0,0.4 0,0.7 0.1,0.8 0.1,0.1 0.1,0.2 0.3,0.3 0.1,0.1 0.3,0.1 0.6,0.1 h 0.3 v 0.2 H 457 v -0.2 h 0.3 c 0.2,0 0.4,0 0.6,-0.1 0.1,-0.1 0.2,-0.2 0.3,-0.3 0,-0.1 0.1,-0.4 0.1,-0.8 v -2.4 h -3 v 2.4 c 0,0.4 0,0.7 0.1,0.8 0.1,0.1 0.1,0.2 0.3,0.3 0.1,0.1 0.3,0.1 0.6,0.1 h 0.3 v 0.2 h -4.4 v -0.2 h 0.3 c 0.2,0 0.4,0 0.6,-0.1 0.1,-0.1 0.2,-0.2 0.3,-0.3 0,-0.1 0.1,-0.4 0.1,-0.8 v -5.6 c 0,-0.4 0,-0.7 -0.1,-0.8 0,-0.1 -0.1,-0.2 -0.3,-0.3 -0.1,-0.1 -0.3,-0.1 -0.6,-0.1 h -0.3 V 483 h 4.4 v 0.2 h -0.3 c -0.2,0 -0.4,0 -0.6,0.1 -0.1,0.1 -0.2,0.2 -0.3,0.3 0,0.1 -0.1,0.4 -0.1,0.8 v 2.6 h 2.9 z"
   id="path183" />
				<path
   d="m 448.2,491 v -3.4 H 448 c -0.5,0 -0.9,0.2 -1.2,0.5 -0.2,0.3 -0.4,0.8 -0.5,1.5 h -0.2 v -4.4 h 0.2 c 0,0.5 0.2,0.9 0.3,1.2 0.2,0.3 0.3,0.5 0.6,0.6 0.2,0.1 0.5,0.2 0.9,0.2 v -2.4 c 0,-0.5 0,-0.8 -0.1,-0.9 0,-0.1 -0.1,-0.2 -0.2,-0.3 -0.1,-0.1 -0.3,-0.1 -0.5,-0.1 h -0.5 c -0.8,0 -1.4,0.2 -1.9,0.5 -0.5,0.3 -0.8,0.9 -1,1.7 h -0.2 l 0.4,-2.7 h 7.3 v 0.2 h -0.3 c -0.2,0 -0.4,0 -0.6,0.1 -0.1,0.1 -0.2,0.2 -0.2,0.3 0,0.1 -0.1,0.4 -0.1,0.8 v 5.6 c 0,0.4 0,0.6 0,0.7 0,0.1 0.1,0.3 0.2,0.3 0.2,0.1 0.4,0.2 0.6,0.2 h 0.3 v 0.2 h -7.1 V 489 h 0.2 c 0.1,0.6 0.3,1.1 0.5,1.3 0.2,0.2 0.5,0.5 0.9,0.6 0.2,0.1 0.7,0.1 1.3,0.1 z"
   id="path185" />
			</g>
		</g>
		<g
   id="g195">
			<g
   id="g193">
				<path
   d="m 431.2,495.8 c -2,0.1 -3.7,-0.5 -4.9,-1.8 -1.3,-1.2 -1.9,-2.8 -1.9,-4.7 0,-1.6 0.5,-3 1.4,-4.2 1.2,-1.6 3,-2.4 5.3,-2.4 2.3,0 4,0.8 5.3,2.3 1,1.2 1.5,2.7 1.5,4.3 0,1.9 -0.6,3.4 -1.9,4.7 -1.3,1.3 -3,1.9 -4.8,1.8 z m -0.1,-0.6 c 1.2,0 2,-0.6 2.6,-1.8 0.5,-1 0.7,-2.4 0.7,-4.2 0,-2.2 -0.4,-3.8 -1.1,-4.8 -0.5,-0.7 -1.3,-1.1 -2.2,-1.1 -0.6,0 -1.2,0.2 -1.6,0.5 -0.5,0.4 -1,1 -1.3,1.9 -0.3,0.9 -0.5,2 -0.5,3.4 0,1.7 0.2,2.9 0.5,3.8 0.3,0.8 0.7,1.4 1.2,1.8 0.5,0.3 1,0.5 1.7,0.5 z"
   id="path191" />
			</g>
		</g>
	</g>
</g>
<g
   id="Layer_5">
</g>
</svg>
